# File produced by Open Asset Import Library (http://www.assimp.sf.net)
# (assimp v3.1.71981620)

mtllib arenasubstance.mtl

# 185 vertex positions
v  548.16 209.952 -730.88
v  548.16 209.952 -548.16
v  730.88 209.952 -548.16
v  730.88 209.952 -730.88
v  -730.88 209.952 -730.88
v  -730.88 209.952 -548.16
v  -548.16 209.952 -548.16
v  -548.16 209.952 -730.88
v  -456.8 209.952 -730.88
v  -456.8 209.952 -548.16
v  -365.44 209.952 -548.16
v  -365.44 209.952 -730.88
v  -182.72 209.952 -548.16
v  -182.72 209.952 -730.88
v  0 209.952 -548.16
v  0 209.952 -730.88
v  182.72 209.952 -548.16
v  182.72 209.952 -730.88
v  365.44 209.952 -548.16
v  365.44 209.952 -730.88
v  456.8 209.952 -730.88
v  456.8 209.952 -548.16
v  -730.88 209.952 548.16
v  -730.88 209.952 730.88
v  -548.16 209.952 730.88
v  -548.16 209.952 548.16
v  -730.88 209.952 365.44
v  -730.88 209.952 456.8
v  -548.16 209.952 456.8
v  -548.16 209.952 365.44
v  -730.88 209.952 182.72
v  -548.16 209.952 182.72
v  -730.88 209.952 -3.4e-05
v  -548.16 209.952 -3.4e-05
v  -730.88 209.952 -182.72
v  -548.16 209.952 -182.72
v  -730.88 209.952 -365.44
v  -548.16 209.952 -365.44
v  -730.88 209.952 -456.8
v  -548.16 209.952 -456.8
v  -456.8 209.952 548.16
v  -456.8 209.952 730.88
v  -365.44 209.952 730.88
v  -365.44 209.952 548.16
v  -182.72 209.952 730.88
v  -182.72 209.952 548.16
v  0 209.952 730.88
v  0 209.952 548.16
v  182.72 209.952 730.88
v  182.72 209.952 548.16
v  365.44 209.952 730.88
v  365.44 209.952 548.16
v  456.8 209.952 548.16
v  456.8 209.952 730.88
v  548.16 209.952 730.88
v  548.16 209.952 548.16
v  730.88 209.952 730.88
v  730.88 209.952 548.16
v  548.16 209.952 365.44
v  548.16 209.952 456.8
v  730.88 209.952 456.8
v  730.88 209.952 365.44
v  548.16 209.952 182.72
v  730.88 209.952 182.72
v  548.16 209.952 -3.4e-05
v  730.88 209.952 -3.4e-05
v  548.16 209.952 -182.72
v  730.88 209.952 -182.72
v  548.16 209.952 -365.44
v  730.88 209.952 -365.44
v  548.16 209.952 -456.8
v  730.88 209.952 -456.8
v  -453.145 -0.256653 365.44
v  -453.145 -0.256653 453.145
v  -365.44 -0.256653 453.145
v  -365.44 -0.256653 365.44
v  -453.145 -0.256683 182.72
v  -365.44 -0.256683 182.72
v  -453.145 -0.256714 0
v  -365.44 -0.256714 0
v  -453.145 -0.256752 -182.72
v  -365.44 -0.256752 -182.72
v  -453.145 -0.256783 -365.44
v  -365.44 -0.256783 -365.44
v  -453.145 -0.256805 -540.851
v  -453.145 -0.25679 -453.145
v  -365.44 -0.25679 -453.145
v  -365.44 -0.256805 -540.851
v  -182.72 -0.256653 453.145
v  -182.72 -0.256653 365.44
v  -182.72 -0.256683 182.72
v  -182.72 -0.256714 0
v  -182.72 -0.256752 -182.72
v  -182.72 -0.256783 -365.44
v  -182.72 -0.25679 -453.145
v  -182.72 -0.256805 -540.851
v  0 -0.256653 453.145
v  0 -0.256653 365.44
v  0 -0.256683 182.72
v  0 -0.256714 0
v  0 -0.256752 -182.72
v  0 -0.256783 -365.44
v  0 -0.25679 -453.145
v  0 -0.256805 -540.851
v  182.72 -0.256653 453.145
v  182.72 -0.256653 365.44
v  182.72 -0.256683 182.72
v  182.72 -0.256714 0
v  182.72 -0.256752 -182.72
v  182.72 -0.256783 -365.44
v  182.72 -0.25679 -453.145
v  182.72 -0.256805 -540.851
v  365.44 -0.256653 453.145
v  365.44 -0.256653 365.44
v  365.44 -0.256683 182.72
v  365.44 -0.256714 0
v  365.44 -0.256752 -182.72
v  365.44 -0.256783 -365.44
v  365.44 -0.25679 -453.145
v  365.44 -0.256805 -540.851
v  453.145 -0.256653 365.44
v  453.145 -0.256653 453.145
v  540.851 -0.256653 453.145
v  540.851 -0.256653 365.44
v  453.145 -0.256683 182.72
v  540.851 -0.256683 182.72
v  453.145 -0.256714 0
v  540.851 -0.256714 0
v  453.145 -0.256752 -182.72
v  540.851 -0.256752 -182.72
v  453.145 -0.256783 -365.44
v  540.851 -0.256783 -365.44
v  453.145 -0.256805 -540.851
v  453.145 -0.25679 -453.145
v  540.851 -0.25679 -453.145
v  540.851 -0.256805 -540.851
v  -540.851 -0.25679 -453.145
v  -540.851 -0.256783 -365.44
v  -540.851 -0.256805 -540.851
v  -540.851 -0.256752 -182.72
v  -540.851 -0.256714 0
v  -540.851 -0.256683 182.72
v  -540.851 -0.256653 365.44
v  -540.851 -0.256653 453.145
v  -540.851 -0.25663 540.851
v  -453.145 -0.25663 540.851
v  365.44 -0.25663 540.851
v  453.145 -0.25663 540.851
v  540.851 -0.25663 540.851
v  182.72 -0.25663 540.851
v  0 -0.25663 540.851
v  -182.72 -0.25663 540.851
v  -365.44 -0.25663 540.851
v  -544.505 104.848 454.973
v  -544.505 104.848 365.44
v  -544.505 104.848 182.72
v  -544.505 104.848 -1.7e-05
v  -544.505 104.848 -182.72
v  -544.505 104.848 -365.44
v  -544.505 104.848 -454.973
v  -544.505 104.847 -544.505
v  -544.505 104.848 544.505
v  544.505 104.848 454.973
v  544.505 104.848 544.505
v  544.505 104.848 182.72
v  544.505 104.848 365.44
v  544.505 104.848 -1.7e-05
v  544.505 104.848 -182.72
v  544.505 104.848 -365.44
v  544.505 104.848 -454.973
v  544.505 104.847 -544.505
v  -454.973 104.848 544.505
v  -182.72 104.848 544.505
v  -365.44 104.848 544.505
v  0 104.848 544.505
v  182.72 104.848 544.505
v  365.44 104.848 544.505
v  454.973 104.848 544.505
v  -454.973 104.847 -544.505
v  -365.44 104.847 -544.505
v  -182.72 104.847 -544.505
v  0 104.847 -544.505
v  182.72 104.847 -544.505
v  365.44 104.847 -544.505
v  454.973 104.847 -544.505

# 261 UV coordinates
vt 0.111187 0.165365 0
vt 0.111177 0.268677 0
vt 0.00786 0.268658 0
vt 0.007839 0.165311 0
vt 0.834509 0.165235 0
vt 0.834542 0.26859 0
vt 0.731202 0.268655 0
vt 0.73116 0.165306 0
vt 0.679492 0.165348 0
vt 0.679532 0.268682 0
vt 0.627863 0.268704 0
vt 0.627828 0.16537 0
vt 0.524522 0.268732 0
vt 0.524497 0.165398 0
vt 0.421185 0.268751 0
vt 0.421169 0.165418 0
vt 0.317848 0.268764 0
vt 0.317841 0.165432 0
vt 0.21451 0.268767 0
vt 0.214512 0.165437 0
vt 0.162853 0.165421 0
vt 0.162843 0.268751 0
vt 0.83491 0.888787 0
vt 0.834872 0.99215 0
vt 0.7315 0.992216 0
vt 0.731502 0.888826 0
vt 0.834928 0.785407 0
vt 0.834948 0.837099 0
vt 0.731576 0.837142 0
vt 0.731559 0.78546 0
vt 0.83485 0.682036 0
vt 0.731484 0.6821 0
vt 0.834764 0.578669 0
vt 0.731401 0.578738 0
vt 0.834678 0.475305 0
vt 0.731317 0.475376 0
vt 0.834594 0.371946 0
vt 0.731235 0.372014 0
vt 0.834558 0.320268 0
vt 0.731201 0.320333 0
vt 0.679804 0.888861 0
vt 0.679799 0.99227 0
vt 0.628089 0.992269 0
vt 0.628103 0.888864 0
vt 0.524683 0.992233 0
vt 0.52471 0.888831 0
vt 0.421278 0.992185 0
vt 0.421316 0.888783 0
vt 0.317875 0.992128 0
vt 0.31792 0.88873 0
vt 0.214478 0.992068 0
vt 0.214527 0.88867 0
vt 0.162825 0.88864 0
vt 0.162778 0.992038 0
vt 0.111086 0.992007 0
vt 0.111129 0.888658 0
vt 0.00772 0.991972 0
vt 0.007745 0.888623 0
vt 0.111093 0.785324 0
vt 0.111079 0.836988 0
vt 0.00775 0.836954 0
vt 0.007762 0.785288 0
vt 0.111129 0.681991 0
vt 0.0078 0.681957 0
vt 0.111163 0.578661 0
vt 0.007837 0.57863 0
vt 0.111193 0.475331 0
vt 0.007868 0.475305 0
vt 0.111218 0.372 0
vt 0.007895 0.371981 0
vt 0.111216 0.320339 0
vt 0.007896 0.320322 0
vt 0.216499 0.832644 0
vt 0.167379 0.832643 0
vt 0.16738 0.783527 0
vt 0.2165 0.783528 0
vt 0.318832 0.832646 0
vt 0.318832 0.78353 0
vt 0.421164 0.832647 0
vt 0.421164 0.78353 0
vt 0.523497 0.832647 0
vt 0.523496 0.783528 0
vt 0.625831 0.832644 0
vt 0.625829 0.783524 0
vt 0.724072 0.832632 0
vt 0.674951 0.832639 0
vt 0.674949 0.783519 0
vt 0.724069 0.783512 0
vt 0.167382 0.681202 0
vt 0.216501 0.681202 0
vt 0.318832 0.681203 0
vt 0.421161 0.681201 0
vt 0.523491 0.681198 0
vt 0.625821 0.681191 0
vt 0.674939 0.681187 0
vt 0.724058 0.68118 0
vt 0.167384 0.578877 0
vt 0.216501 0.578878 0
vt 0.318829 0.578877 0
vt 0.421157 0.578874 0
vt 0.523484 0.578868 0
vt 0.625812 0.57886 0
vt 0.674928 0.578855 0
vt 0.724044 0.578849 0
vt 0.167384 0.476554 0
vt 0.2165 0.476555 0
vt 0.318826 0.476552 0
vt 0.421151 0.476546 0
vt 0.523476 0.476539 0
vt 0.625802 0.47653 0
vt 0.674917 0.476524 0
vt 0.724034 0.476519 0
vt 0.167382 0.374231 0
vt 0.216497 0.374231 0
vt 0.318821 0.374226 0
vt 0.421144 0.374219 0
vt 0.523467 0.37421 0
vt 0.625792 0.374199 0
vt 0.674907 0.374194 0
vt 0.724023 0.374188 0
vt 0.216493 0.325115 0
vt 0.167378 0.325115 0
vt 0.167373 0.276001 0
vt 0.216487 0.276 0
vt 0.318816 0.32511 0
vt 0.318811 0.275994 0
vt 0.421139 0.3251 0
vt 0.421135 0.275983 0
vt 0.523463 0.325091 0
vt 0.523458 0.275972 0
vt 0.625787 0.325079 0
vt 0.625781 0.275962 0
vt 0.724017 0.325069 0
vt 0.674901 0.325074 0
vt 0.674897 0.275956 0
vt 0.724013 0.275951 0
vt 0.67495 0.88176 0
vt 0.625829 0.881764 0
vt 0.724068 0.88175 0
vt 0.523497 0.881766 0
vt 0.421164 0.881764 0
vt 0.318831 0.881764 0
vt 0.216499 0.881761 0
vt 0.167379 0.88176 0
vt 0.118261 0.881759 0
vt 0.11826 0.832642 0
vt 0.118267 0.374229 0
vt 0.118264 0.325113 0
vt 0.118256 0.275997 0
vt 0.118268 0.476552 0
vt 0.118266 0.578876 0
vt 0.118263 0.681201 0
vt 0.118261 0.783526 0
vt 0.840957 0.211561 0
vt 0.910081 0.211957 0
vt 0.910521 0.245567 0
vt 0.841407 0.245858 0
vt 0.911415 0.314158 0
vt 0.842301 0.314449 0
vt 0.912305 0.382748 0
vt 0.843192 0.38304 0
vt 0.913195 0.451339 0
vt 0.844082 0.451631 0
vt 0.914086 0.519928 0
vt 0.844972 0.52022 0
vt 0.845419 0.554515 0
vt 0.914523 0.553537 0
vt 0.91496 0.587146 0
vt 0.845867 0.588809 0
vt 0.983627 0.552559 0
vt 0.984055 0.585482 0
vt 0.982309 0.451046 0
vt 0.983199 0.519636 0
vt 0.981419 0.382456 0
vt 0.980529 0.313866 0
vt 0.979637 0.245276 0
vt 0.979207 0.212352 0
vt 0.909641 0.178348 0
vt 0.978774 0.179429 0
vt 0.840506 0.177264 0
vt 0.046372 0.013201 0
vt 0.047419 0.0837 0
vt 0.01313 0.084214 0
vt 0.011383 0.013722 0
vt 0.151337 0.011623 0
vt 0.151685 0.082131 0
vt 0.081709 0.083185 0
vt 0.081362 0.012676 0
vt 0.221313 0.010565 0
vt 0.221662 0.081072 0
vt 0.291289 0.009506 0
vt 0.291638 0.080014 0
vt 0.361264 0.008447 0
vt 0.361614 0.078955 0
vt 0.396251 0.007919 0
vt 0.395904 0.078436 0
vt 0.395554 0.148953 0
vt 0.361965 0.149462 0
vt 0.291988 0.150523 0
vt 0.222011 0.151582 0
vt 0.152033 0.15264 0
vt 0.082056 0.153694 0
vt 0.048467 0.154199 0
vt 0.014877 0.154705 0
vt 0.430192 0.077918 0
vt 0.429143 0.148448 0
vt 0.431237 0.00739 0
vt 0.991528 0.633967 0
vt 0.916654 0.634549 0
vt 0.916655 0.606194 0
vt 0.991528 0.605032 0
vt 0.991524 0.72077 0
vt 0.916649 0.720772 0
vt 0.916649 0.662904 0
vt 0.991524 0.662902 0
vt 0.991527 0.778639 0
vt 0.916654 0.778641 0
vt 0.991531 0.836508 0
vt 0.916657 0.836509 0
vt 0.991538 0.894376 0
vt 0.916665 0.894376 0
vt 0.991541 0.92331 0
vt 0.916666 0.922731 0
vt 0.841795 0.922153 0
vt 0.841792 0.894377 0
vt 0.841784 0.83651 0
vt 0.841779 0.778642 0
vt 0.841774 0.720774 0
vt 0.841774 0.662906 0
vt 0.841776 0.63513 0
vt 0.841782 0.607354 0
vt 0.916667 0.951086 0
vt 0.841797 0.949929 0
vt 0.991539 0.952244 0
vt 0.481484 0.145384 0
vt 0.481869 0.078306 0
vt 0.514812 0.07788 0
vt 0.5151 0.144951 0
vt 0.582046 0.077019 0
vt 0.582332 0.144089 0
vt 0.649279 0.076156 0
vt 0.649565 0.143228 0
vt 0.716512 0.075295 0
vt 0.716797 0.142366 0
vt 0.783745 0.07443 0
vt 0.784029 0.141501 0
vt 0.817644 0.141067 0
vt 0.816689 0.074004 0
vt 0.849634 0.073578 0
vt 0.851259 0.140631 0
vt 0.815732 0.006945 0
vt 0.848004 0.006527 0
vt 0.716226 0.008225 0
vt 0.783458 0.007359 0
vt 0.648992 0.009087 0
vt 0.581759 0.009948 0
vt 0.514526 0.010811 0
vt 0.482254 0.011225 0
vt 0.448924 0.078727 0
vt 0.449982 0.01164 0
vt 0.447868 0.145817 0

# 6 vertex normals
vn 0 1 -0
vn 0.999396 0.034748 -0
vn -0.999396 0.034748 -0
vn 0 0.034747 -0.999396
vn 0 0.034748 -0.999396
vn 0 0.034748 0.999396

# Mesh 'g Plane_Plane' with 328 faces
g g Plane_Plane
usemtl Material.001
f  1/1/1 2/2/1 3/3/1
f  3/3/1 4/4/1 1/1/1
f  5/5/1 6/6/1 7/7/1
f  7/7/1 8/8/1 5/5/1
f  9/9/1 10/10/1 11/11/1
f  11/11/1 12/12/1 9/9/1
f  12/12/1 11/11/1 13/13/1
f  13/13/1 14/14/1 12/12/1
f  14/14/1 13/13/1 15/15/1
f  15/15/1 16/16/1 14/14/1
f  16/16/1 15/15/1 17/17/1
f  17/17/1 18/18/1 16/16/1
f  18/18/1 17/17/1 19/19/1
f  19/19/1 20/20/1 18/18/1
f  21/21/1 22/22/1 2/2/1
f  2/2/1 1/1/1 21/21/1
f  23/23/1 24/24/1 25/25/1
f  25/25/1 26/26/1 23/23/1
f  27/27/1 28/28/1 29/29/1
f  29/29/1 30/30/1 27/27/1
f  31/31/1 27/27/1 30/30/1
f  30/30/1 32/32/1 31/31/1
f  33/33/1 31/31/1 32/32/1
f  32/32/1 34/34/1 33/33/1
f  35/35/1 33/33/1 34/34/1
f  34/34/1 36/36/1 35/35/1
f  37/37/1 35/35/1 36/36/1
f  36/36/1 38/38/1 37/37/1
f  6/6/1 39/39/1 40/40/1
f  40/40/1 7/7/1 6/6/1
f  41/41/1 42/42/1 43/43/1
f  43/43/1 44/44/1 41/41/1
f  44/44/1 43/43/1 45/45/1
f  45/45/1 46/46/1 44/44/1
f  46/46/1 45/45/1 47/47/1
f  47/47/1 48/48/1 46/46/1
f  48/48/1 47/47/1 49/49/1
f  49/49/1 50/50/1 48/48/1
f  50/50/1 49/49/1 51/51/1
f  51/51/1 52/52/1 50/50/1
f  53/53/1 54/54/1 55/55/1
f  55/55/1 56/56/1 53/53/1
f  56/56/1 55/55/1 57/57/1
f  57/57/1 58/58/1 56/56/1
f  59/59/1 60/60/1 61/61/1
f  61/61/1 62/62/1 59/59/1
f  63/63/1 59/59/1 62/62/1
f  62/62/1 64/64/1 63/63/1
f  65/65/1 63/63/1 64/64/1
f  64/64/1 66/66/1 65/65/1
f  67/67/1 65/65/1 66/66/1
f  66/66/1 68/68/1 67/67/1
f  69/69/1 67/67/1 68/68/1
f  68/68/1 70/70/1 69/69/1
f  2/2/1 71/71/1 72/72/1
f  72/72/1 3/3/1 2/2/1
f  52/52/1 51/51/1 54/54/1
f  54/54/1 53/53/1 52/52/1
f  20/20/1 19/19/1 22/22/1
f  22/22/1 21/21/1 20/20/1
f  71/71/1 69/69/1 70/70/1
f  70/70/1 72/72/1 71/71/1
f  39/39/1 37/37/1 38/38/1
f  38/38/1 40/40/1 39/39/1
f  26/26/1 25/25/1 42/42/1
f  42/42/1 41/41/1 26/26/1
f  8/8/1 7/7/1 10/10/1
f  10/10/1 9/9/1 8/8/1
f  60/60/1 56/56/1 58/58/1
f  58/58/1 61/61/1 60/60/1
f  28/28/1 23/23/1 26/26/1
f  26/26/1 29/29/1 28/28/1
f  73/73/1 74/74/1 75/75/1
f  75/75/1 76/76/1 73/73/1
f  77/77/1 73/73/1 76/76/1
f  76/76/1 78/78/1 77/77/1
f  79/79/1 77/77/1 78/78/1
f  78/78/1 80/80/1 79/79/1
f  81/81/1 79/79/1 80/80/1
f  80/80/1 82/82/1 81/81/1
f  83/83/1 81/81/1 82/82/1
f  82/82/1 84/84/1 83/83/1
f  85/85/1 86/86/1 87/87/1
f  87/87/1 88/88/1 85/85/1
f  76/76/1 75/75/1 89/89/1
f  89/89/1 90/90/1 76/76/1
f  78/78/1 76/76/1 90/90/1
f  90/90/1 91/91/1 78/78/1
f  80/80/1 78/78/1 91/91/1
f  91/91/1 92/92/1 80/80/1
f  82/82/1 80/80/1 92/92/1
f  92/92/1 93/93/1 82/82/1
f  84/84/1 82/82/1 93/93/1
f  93/93/1 94/94/1 84/84/1
f  88/88/1 87/87/1 95/95/1
f  95/95/1 96/96/1 88/88/1
f  90/90/1 89/89/1 97/97/1
f  97/97/1 98/98/1 90/90/1
f  91/91/1 90/90/1 98/98/1
f  98/98/1 99/99/1 91/91/1
f  92/92/1 91/91/1 99/99/1
f  99/99/1 100/100/1 92/92/1
f  93/93/1 92/92/1 100/100/1
f  100/100/1 101/101/1 93/93/1
f  94/94/1 93/93/1 101/101/1
f  101/101/1 102/102/1 94/94/1
f  96/96/1 95/95/1 103/103/1
f  103/103/1 104/104/1 96/96/1
f  98/98/1 97/97/1 105/105/1
f  105/105/1 106/106/1 98/98/1
f  99/99/1 98/98/1 106/106/1
f  106/106/1 107/107/1 99/99/1
f  100/100/1 99/99/1 107/107/1
f  107/107/1 108/108/1 100/100/1
f  101/101/1 100/100/1 108/108/1
f  108/108/1 109/109/1 101/101/1
f  102/102/1 101/101/1 109/109/1
f  109/109/1 110/110/1 102/102/1
f  104/104/1 103/103/1 111/111/1
f  111/111/1 112/112/1 104/104/1
f  106/106/1 105/105/1 113/113/1
f  113/113/1 114/114/1 106/106/1
f  107/107/1 106/106/1 114/114/1
f  114/114/1 115/115/1 107/107/1
f  108/108/1 107/107/1 115/115/1
f  115/115/1 116/116/1 108/108/1
f  109/109/1 108/108/1 116/116/1
f  116/116/1 117/117/1 109/109/1
f  110/110/1 109/109/1 117/117/1
f  117/117/1 118/118/1 110/110/1
f  112/112/1 111/111/1 119/119/1
f  119/119/1 120/120/1 112/112/1
f  121/121/1 122/122/1 123/123/1
f  123/123/1 124/124/1 121/121/1
f  125/125/1 121/121/1 124/124/1
f  124/124/1 126/126/1 125/125/1
f  127/127/1 125/125/1 126/126/1
f  126/126/1 128/128/1 127/127/1
f  129/129/1 127/127/1 128/128/1
f  128/128/1 130/130/1 129/129/1
f  131/131/1 129/129/1 130/130/1
f  130/130/1 132/132/1 131/131/1
f  133/133/1 134/134/1 135/135/1
f  135/135/1 136/136/1 133/133/1
f  120/120/1 119/119/1 134/134/1
f  134/134/1 133/133/1 120/120/1
f  118/118/1 117/117/1 129/129/1
f  129/129/1 131/131/1 118/118/1
f  117/117/1 116/116/1 127/127/1
f  127/127/1 129/129/1 117/117/1
f  116/116/1 115/115/1 125/125/1
f  125/125/1 127/127/1 116/116/1
f  115/115/1 114/114/1 121/121/1
f  121/121/1 125/125/1 115/115/1
f  114/114/1 113/113/1 122/122/1
f  122/122/1 121/121/1 114/114/1
f  119/119/1 118/118/1 131/131/1
f  131/131/1 134/134/1 119/119/1
f  134/134/1 131/131/1 132/132/1
f  132/132/1 135/135/1 134/134/1
f  111/111/1 110/110/1 118/118/1
f  118/118/1 119/119/1 111/111/1
f  103/103/1 102/102/1 110/110/1
f  110/110/1 111/111/1 103/103/1
f  95/95/1 94/94/1 102/102/1
f  102/102/1 103/103/1 95/95/1
f  87/87/1 84/84/1 94/94/1
f  94/94/1 95/95/1 87/87/1
f  86/86/1 83/83/1 84/84/1
f  84/84/1 87/87/1 86/86/1
f  137/137/1 138/138/1 83/83/1
f  83/83/1 86/86/1 137/137/1
f  139/139/1 137/137/1 86/86/1
f  86/86/1 85/85/1 139/139/1
f  138/138/1 140/140/1 81/81/1
f  81/81/1 83/83/1 138/138/1
f  140/140/1 141/141/1 79/79/1
f  79/79/1 81/81/1 140/140/1
f  141/141/1 142/142/1 77/77/1
f  77/77/1 79/79/1 141/141/1
f  142/142/1 143/143/1 73/73/1
f  73/73/1 77/77/1 142/142/1
f  143/143/1 144/144/1 74/74/1
f  74/74/1 73/73/1 143/143/1
f  144/144/1 145/145/1 146/146/1
f  146/146/1 74/74/1 144/144/1
f  113/113/1 147/147/1 148/148/1
f  148/148/1 122/122/1 113/113/1
f  122/122/1 148/148/1 149/149/1
f  149/149/1 123/123/1 122/122/1
f  105/105/1 150/150/1 147/147/1
f  147/147/1 113/113/1 105/105/1
f  97/97/1 151/151/1 150/150/1
f  150/150/1 105/105/1 97/97/1
f  89/89/1 152/152/1 151/151/1
f  151/151/1 97/97/1 89/89/1
f  75/75/1 153/153/1 152/152/1
f  152/152/1 89/89/1 75/75/1
f  74/74/1 146/146/1 153/153/1
f  153/153/1 75/75/1 74/74/1
f  29/154/2 154/155/2 155/156/2
f  155/156/2 30/157/2 29/154/2
f  30/157/2 155/156/2 156/158/2
f  156/158/2 32/159/2 30/157/2
f  32/159/2 156/158/2 157/160/2
f  157/160/2 34/161/2 32/159/2
f  34/161/2 157/160/2 158/162/2
f  158/162/2 36/163/2 34/161/2
f  36/163/2 158/162/2 159/164/2
f  159/164/2 38/165/2 36/163/2
f  40/166/2 160/167/2 161/168/2
f  161/168/2 7/169/2 40/166/2
f  160/167/2 137/170/2 139/171/2
f  139/171/2 161/168/2 160/167/2
f  158/162/2 140/172/2 138/173/2
f  138/173/2 159/164/2 158/162/2
f  157/160/2 141/174/2 140/172/2
f  140/172/2 158/162/2 157/160/2
f  156/158/2 142/175/2 141/174/2
f  141/174/2 157/160/2 156/158/2
f  155/156/2 143/176/2 142/175/2
f  142/175/2 156/158/2 155/156/2
f  154/155/2 144/177/2 143/176/2
f  143/176/2 155/156/2 154/155/2
f  159/164/2 138/173/2 137/170/2
f  137/170/2 160/167/2 159/164/2
f  38/165/2 159/164/2 160/167/2
f  160/167/2 40/166/2 38/165/2
f  162/178/2 145/179/2 144/177/2
f  144/177/2 154/155/2 162/178/2
f  26/180/2 162/178/2 154/155/2
f  154/155/2 29/154/2 26/180/2
f  60/181/3 163/182/3 164/183/3
f  164/183/3 56/184/3 60/181/3
f  63/185/3 165/186/3 166/187/3
f  166/187/3 59/188/3 63/185/3
f  65/189/3 167/190/3 165/186/3
f  165/186/3 63/185/3 65/189/3
f  67/191/3 168/192/3 167/190/3
f  167/190/3 65/189/3 67/191/3
f  69/193/3 169/194/3 168/192/3
f  168/192/3 67/191/3 69/193/3
f  71/195/3 170/196/3 169/194/3
f  169/194/3 69/193/3 71/195/3
f  170/196/3 135/197/3 132/198/3
f  132/198/3 169/194/3 170/196/3
f  169/194/3 132/198/3 130/199/3
f  130/199/3 168/192/3 169/194/3
f  168/192/3 130/199/3 128/200/3
f  128/200/3 167/190/3 168/192/3
f  167/190/3 128/200/3 126/201/3
f  126/201/3 165/186/3 167/190/3
f  165/186/3 126/201/3 124/202/3
f  124/202/3 166/187/3 165/186/3
f  163/182/3 123/203/3 149/204/3
f  149/204/3 164/183/3 163/182/3
f  171/205/3 136/206/3 135/197/3
f  135/197/3 170/196/3 171/205/3
f  2/207/3 171/205/3 170/196/3
f  170/196/3 71/195/3 2/207/3
f  166/187/3 124/202/3 123/203/3
f  123/203/3 163/182/3 166/187/3
f  59/188/3 166/187/3 163/182/3
f  163/182/3 60/181/3 59/188/3
f  41/208/4 172/209/5 162/210/5
f  162/210/5 26/211/4 41/208/4
f  46/212/4 173/213/5 174/214/5
f  174/214/5 44/215/4 46/212/4
f  48/216/4 175/217/5 173/213/5
f  173/213/5 46/212/4 48/216/4
f  50/218/4 176/219/5 175/217/5
f  175/217/5 48/216/4 50/218/4
f  52/220/4 177/221/5 176/219/5
f  176/219/5 50/218/4 52/220/4
f  53/222/4 178/223/5 177/221/5
f  177/221/5 52/220/4 53/222/4
f  178/223/5 148/224/5 147/225/5
f  147/225/5 177/221/5 178/223/5
f  177/221/5 147/225/5 150/226/5
f  150/226/5 176/219/5 177/221/5
f  176/219/5 150/226/5 151/227/5
f  151/227/5 175/217/5 176/219/5
f  175/217/5 151/227/5 152/228/5
f  152/228/5 173/213/5 175/217/5
f  173/213/5 152/228/5 153/229/5
f  153/229/5 174/214/5 173/213/5
f  172/209/5 146/230/5 145/231/5
f  145/231/5 162/210/5 172/209/5
f  164/232/5 149/233/5 148/224/5
f  148/224/5 178/223/5 164/232/5
f  56/234/4 164/232/5 178/223/5
f  178/223/5 53/222/4 56/234/4
f  174/214/5 153/229/5 146/230/5
f  146/230/5 172/209/5 174/214/5
f  44/215/4 174/214/5 172/209/5
f  172/209/5 41/208/4 44/215/4
f  10/235/6 179/236/6 180/237/6
f  180/237/6 11/238/6 10/235/6
f  11/238/6 180/237/6 181/239/6
f  181/239/6 13/240/6 11/238/6
f  13/240/6 181/239/6 182/241/6
f  182/241/6 15/242/6 13/240/6
f  15/242/6 182/241/6 183/243/6
f  183/243/6 17/244/6 15/242/6
f  17/244/6 183/243/6 184/245/6
f  184/245/6 19/246/6 17/244/6
f  22/247/6 185/248/6 171/249/6
f  171/249/6 2/250/6 22/247/6
f  185/248/6 133/251/6 136/252/6
f  136/252/6 171/249/6 185/248/6
f  183/243/6 112/253/6 120/254/6
f  120/254/6 184/245/6 183/243/6
f  182/241/6 104/255/6 112/253/6
f  112/253/6 183/243/6 182/241/6
f  181/239/6 96/256/6 104/255/6
f  104/255/6 182/241/6 181/239/6
f  180/237/6 88/257/6 96/256/6
f  96/256/6 181/239/6 180/237/6
f  179/236/6 85/258/6 88/257/6
f  88/257/6 180/237/6 179/236/6
f  184/245/6 120/254/6 133/251/6
f  133/251/6 185/248/6 184/245/6
f  19/246/6 184/245/6 185/248/6
f  185/248/6 22/247/6 19/246/6
f  161/259/6 139/260/6 85/258/6
f  85/258/6 179/236/6 161/259/6
f  7/261/6 161/259/6 179/236/6
f  179/236/6 10/235/6 7/261/6

