# Wavefront Obj file
# 
# verts: 48 uv-s: 124
mtllib BugBodyUV.mtl

g Cube
#pivot 0.000000 0.000000 0.000000

v 2.900001 1.000000 -2.927923
v 3.000000 0.617996 -0.385950
v 2.899999 1.000000 1.900000
v 2.999999 0.617996 1.010895
v 2.900000 -1.000000 -2.927924
v 3.000000 -0.617996 -0.385950
v 3.000000 -0.617996 1.010895
v 2.900000 -1.000000 1.900000
v 2.999999 0.900000 2.000000
v 3.000000 0.900000 -3.000000
v 3.000000 -0.900000 -3.000000
v 3.000000 -0.900000 2.000000
v 3.098362 0.617996 1.010895
v 3.153515 0.565031 0.954788
v 3.153517 0.565031 -0.329843
v 3.098363 0.617996 -0.385950
v 3.098362 -0.617996 -0.385950
v 3.153516 -0.565031 -0.329843
v 3.153516 -0.565031 0.954788
v 3.098362 -0.617996 1.010895
v -2.900001 1.000000 -2.927923
v -3.000000 0.617996 -0.385950
v -2.899999 1.000000 1.900000
v -2.999999 0.617996 1.010895
v 0.000000 0.900000 2.000000
v 0.000000 1.000000 1.900000
v 0.000000 1.000000 -3.894591
v 0.000000 0.900000 -4.000000
v -2.900000 -1.000000 -2.927924
v -3.000000 -0.617996 -0.385950
v -3.000000 -0.617996 1.010895
v -2.900000 -1.000000 1.900000
v 0.000000 -1.000000 1.900000
v 0.000000 -0.900000 2.000000
v 0.000000 -0.900000 -4.000000
v 0.000000 -1.000000 -3.894591
v -2.999999 0.900000 2.000000
v -3.000000 0.900000 -3.000000
v -3.000000 -0.900000 -3.000000
v -3.000000 -0.900000 2.000000
v -3.098362 0.617996 1.010895
v -3.153515 0.565031 0.954788
v -3.153517 0.565031 -0.329843
v -3.098363 0.617996 -0.385950
v -3.098362 -0.617996 -0.385950
v -3.153516 -0.565031 -0.329843
v -3.153516 -0.565031 0.954788
v -3.098362 -0.617996 1.010895
# 48 positions

vt 0.746862 0.406659
vt 0.746862 0.547902
vt 0.995000 0.547902
vt 0.995000 0.406659
vt 0.255933 0.232558
vt 0.180080 0.005000
vt 0.634771 0.005000
vt 0.634771 0.232557
vt 0.846021 0.579120
vt 0.467182 0.579120
vt 0.467182 0.806678
vt 0.921873 0.806678
vt 0.642618 0.240404
vt 0.250277 0.240404
vt 0.171809 0.005000
vt 0.732985 0.971839
vt 0.505428 0.971839
vt 0.505428 0.963992
vt 0.740832 0.963992
vt 0.740832 0.822749
vt 0.505428 0.822749
vt 0.851676 0.571273
vt 0.459336 0.571273
vt 0.930144 0.806678
vt 0.505428 0.814903
vt 0.732985 0.814903
vt 0.358784 0.753447
vt 0.261798 0.753447
vt 0.261798 0.761165
vt 0.358784 0.761165
vt 0.920848 0.319727
vt 0.920848 0.210120
vt 0.942976 0.005000
vt 0.942976 0.397341
vt 0.823862 0.210120
vt 0.823862 0.319727
vt 0.801733 0.397341
vt 0.801733 0.005000
vt 0.261798 0.778724
vt 0.358784 0.778724
vt 0.358784 0.771006
vt 0.261798 0.771006
vt 0.575663 0.542740
vt 0.685271 0.542740
vt 0.685271 0.550459
vt 0.575663 0.550459
vt 0.593222 0.532900
vt 0.702830 0.532900
vt 0.702830 0.525181
vt 0.593222 0.525181
vt 0.841887 0.920108
vt 0.841887 0.819305
vt 0.846043 0.814903
vt 0.846043 0.924510
vt 0.753213 0.819305
vt 0.753213 0.920108
vt 0.749057 0.924510
vt 0.749057 0.814903
vt 0.253138 0.735888
vt 0.005000 0.735888
vt 0.005000 0.877130
vt 0.253138 0.877130
vt 0.005000 0.467962
vt 0.005000 0.013271
vt 0.012847 0.005000
vt 0.154089 0.005000
vt 0.161936 0.013271
vt 0.161936 0.467962
vt 0.154089 0.475809
vt 0.012847 0.475809
vt 0.253738 0.256476
vt 0.632576 0.256476
vt 0.632576 0.484034
vt 0.177885 0.484034
vt 0.391685 0.719816
vt 0.467538 0.492259
vt 0.012847 0.492259
vt 0.012847 0.719816
vt 0.248082 0.248629
vt 0.640423 0.248629
vt 0.169614 0.484034
vt 0.269645 0.971839
vt 0.261798 0.963992
vt 0.497203 0.963992
vt 0.497203 0.971839
vt 0.261798 0.822749
vt 0.497203 0.822749
vt 0.397341 0.727663
vt 0.005000 0.727663
vt 0.475809 0.492259
vt 0.269645 0.814903
vt 0.497203 0.814903
vt 0.358785 0.743606
vt 0.358785 0.735888
vt 0.261798 0.735888
vt 0.261798 0.743606
vt 0.674611 0.082613
vt 0.652483 0.005000
vt 0.652483 0.397341
vt 0.674611 0.192221
vt 0.771598 0.192221
vt 0.793726 0.397341
vt 0.793726 0.005000
vt 0.771598 0.082613
vt 0.470310 0.542740
vt 0.470310 0.550459
vt 0.567296 0.550459
vt 0.567296 0.542740
vt 0.474700 0.532900
vt 0.474700 0.525181
vt 0.584308 0.525181
vt 0.584308 0.532900
vt 0.481284 0.505428
vt 0.481284 0.513146
vt 0.590892 0.513146
vt 0.590892 0.505428
vt 0.645665 0.411062
vt 0.641509 0.406659
vt 0.641509 0.516267
vt 0.645665 0.511864
vt 0.734339 0.511864
vt 0.738495 0.516267
vt 0.738495 0.406659
vt 0.734339 0.411062
# 124 texture coordinates

vn 0.316228 0.000000 -0.948683
vn 0.000000 1.000000 0.000000
vn 0.000000 -1.000000 0.000000
vn 0.707109 0.707105 0.000000
vn 0.223607 0.707107 -0.670820
vn 0.000000 0.707106 0.707107
vn 0.000000 0.000000 1.000000
vn 0.707107 -0.707106 0.000000
vn 0.223607 -0.707106 -0.670821
vn 0.000000 -0.707106 0.707107
vn 0.000000 0.000000 -1.000000
vn 1.000000 0.000000 0.000000
vn 0.692652 0.721272 0.000001
vn 0.692648 -0.721276 0.000000
vn 0.713138 -0.000001 -0.701024
vn 0.713140 0.000000 0.701022
vn -0.316228 0.000000 -0.948683
vn -0.707109 0.707105 0.000000
vn -0.223607 0.707107 -0.670820
vn -0.707107 -0.707106 0.000000
vn -0.223607 -0.707106 -0.670821
vn -1.000000 0.000000 0.000000
vn -0.692652 0.721272 0.000001
vn -0.692648 -0.721276 0.000000
vn -0.713137 -0.000001 -0.701024
vn -0.713140 0.000000 0.701022
# 26 normals

usemtl Material
f 10/1/1 11/2/1 35/3/1 28/4/1
f 1/5/2 27/6/2 26/7/2 3/8/2
f 5/9/3 8/10/3 33/11/3 36/12/3
f 1/5/4 3/8/4 9/13/4 10/14/4
f 10/14/5 28/15/5 27/6/5 1/5/5
f 3/16/6 26/17/6 25/18/6 9/19/6
f 12/20/7 9/19/7 25/18/7 34/21/7
f 11/22/8 12/23/8 8/10/8 5/9/8
f 5/9/9 36/12/9 35/24/9 11/22/9
f 12/20/10 34/21/10 33/25/10 8/26/10
f 6/27/11 2/28/11 16/29/11 17/30/11
f 4/31/12 2/32/12 10/33/12 9/34/12
f 6/35/12 7/36/12 12/37/12 11/38/12
f 2/32/12 6/35/12 11/38/12 10/33/12
f 7/36/12 4/31/12 9/34/12 12/37/12
f 4/39/7 7/40/7 20/41/7 13/42/7
f 2/43/2 4/44/2 13/45/2 16/46/2
f 7/47/3 6/48/3 17/49/3 20/50/3
f 14/51/13 15/52/13 16/53/13 13/54/13
f 18/55/14 19/56/14 20/57/14 17/58/14
f 17/58/15 16/53/15 15/52/15 18/55/15
f 13/54/16 20/57/16 19/56/16 14/51/16
f 18/55/12 15/52/12 14/51/12 19/56/12
f 38/59/17 28/60/17 35/61/17 39/62/17
f 33/63/12 36/64/12 35/65/12 28/66/12 27/67/12 26/68/12 25/69/12 34/70/12
f 21/71/2 23/72/2 26/73/2 27/74/2
f 29/75/3 36/76/3 33/77/3 32/78/3
f 21/71/18 38/79/18 37/80/18 23/72/18
f 38/79/19 21/71/19 27/74/19 28/81/19
f 23/82/6 37/83/6 25/84/6 26/85/6
f 40/86/7 34/87/7 25/84/7 37/83/7
f 39/88/20 29/75/20 32/78/20 40/89/20
f 29/75/21 39/88/21 35/90/21 36/76/21
f 40/86/10 32/91/10 33/92/10 34/87/10
f 30/93/11 45/94/11 44/95/11 22/96/11
f 24/97/22 37/98/22 38/99/22 22/100/22
f 30/101/22 39/102/22 40/103/22 31/104/22
f 22/100/22 38/99/22 39/102/22 30/101/22
f 31/104/22 40/103/22 37/98/22 24/97/22
f 24/105/7 41/106/7 48/107/7 31/108/7
f 22/109/2 44/110/2 41/111/2 24/112/2
f 31/113/3 48/114/3 45/115/3 30/116/3
f 42/117/23 41/118/23 44/119/23 43/120/23
f 46/121/24 45/122/24 48/123/24 47/124/24
f 45/122/25 46/121/25 43/120/25 44/119/25
f 41/118/26 42/117/26 47/124/26 48/123/26
f 46/121/22 47/124/22 42/117/22 43/120/22

# 47 faces
