# Wavefront Obj file
# 
# verts: 144 uv-s: 412
mtllib Saw_BladeUV.mtl

g Circle
#pivot 0.000000 0.000000 0.000000

v 0.000000 0.000000 -1.000000
v -0.195090 0.000000 -0.980785
v -0.382683 0.000000 -0.923880
v -0.555570 0.000000 -0.831470
v -0.707107 0.000000 -0.707107
v -0.831470 0.000000 -0.555570
v -0.923880 0.000000 -0.382683
v -0.980785 0.000000 -0.195090
v -1.000000 0.000000 0.000000
v -0.980785 0.000000 0.195090
v -0.923880 0.000000 0.382683
v -0.831470 0.000000 0.555570
v -0.707107 0.000000 0.707107
v -0.555570 0.000000 0.831470
v -0.382683 0.000000 0.923880
v -0.195090 0.000000 0.980785
v 0.000000 0.000000 1.000000
v 0.195091 0.000000 0.980785
v 0.382684 0.000000 0.923879
v 0.555571 0.000000 0.831469
v 0.707107 0.000000 0.707106
v 0.831470 0.000000 0.555570
v 0.923880 0.000000 0.382683
v 0.980785 0.000000 0.195089
v 1.000000 0.000000 -0.000001
v 0.980785 0.000000 -0.195091
v 0.923879 0.000000 -0.382684
v 0.831469 0.000000 -0.555571
v 0.707106 0.000000 -0.707108
v 0.555569 0.000000 -0.831470
v 0.382682 0.000000 -0.923880
v 0.195089 0.000000 -0.980786
v -0.195090 0.050000 -0.980785
v 0.000000 0.050000 -1.000000
v -0.382683 0.050000 -0.923880
v -0.555570 0.050000 -0.831470
v -0.707107 0.050000 -0.707107
v -0.831470 0.050000 -0.555570
v -0.923880 0.050000 -0.382683
v -0.980785 0.050000 -0.195090
v -1.000000 0.050000 0.000000
v -0.980785 0.050000 0.195090
v -0.923880 0.050000 0.382683
v -0.831470 0.050000 0.555570
v -0.707107 0.050000 0.707107
v -0.555570 0.050000 0.831470
v -0.382683 0.050000 0.923880
v -0.195090 0.050000 0.980785
v 0.000000 0.050000 1.000000
v 0.195091 0.050000 0.980785
v 0.382684 0.050000 0.923879
v 0.555571 0.050000 0.831469
v 0.707107 0.050000 0.707106
v 0.831470 0.050000 0.555570
v 0.923880 0.050000 0.382683
v 0.980785 0.050000 0.195089
v 1.000000 0.050000 -0.000001
v 0.980785 0.050000 -0.195091
v 0.923879 0.050000 -0.382684
v 0.831469 0.050000 -0.555571
v 0.707106 0.050000 -0.707108
v 0.555569 0.050000 -0.831470
v 0.382682 0.050000 -0.923880
v 0.195089 0.050000 -0.980786
v -0.204892 0.000000 1.080304
v -0.204892 0.050000 1.080304
v 0.009802 0.000000 1.099519
v 0.009802 0.050000 1.099519
v 0.224119 0.000000 1.076479
v 0.224119 0.050000 1.076479
v 0.429824 0.000000 1.012071
v 0.429824 0.050000 1.012071
v 0.619010 0.000000 0.908770
v 0.619010 0.050000 0.908770
v 0.784408 0.000000 0.770546
v 0.784408 0.050000 0.770546
v -0.411712 0.000000 1.019574
v -0.411712 0.050000 1.019574
v -0.602710 0.000000 0.919662
v -0.602710 0.050000 0.919662
v -0.770546 0.000000 0.784408
v -0.770546 0.050000 0.784408
v -0.908771 0.000000 0.619009
v -0.908771 0.050000 0.619009
v 0.919662 0.000000 0.602709
v 0.919662 0.050000 0.602709
v 1.019574 0.000000 0.411711
v 1.019574 0.050000 0.411711
v -1.012072 0.000000 0.429823
v -1.012072 0.050000 0.429823
v -1.076479 0.000000 0.224119
v -1.076479 0.050000 0.224119
v 1.080304 0.000000 0.204891
v 1.080304 0.050000 0.204891
v 0.770545 0.000000 -0.784409
v 0.770545 0.050000 -0.784409
v 0.908770 0.000000 -0.619011
v 0.908770 0.050000 -0.619011
v 1.012071 0.000000 -0.429824
v 1.012071 0.050000 -0.429824
v 1.076479 0.000000 -0.224120
v 1.076479 0.050000 -0.224120
v 1.099518 0.000000 -0.009803
v 1.099518 0.050000 -0.009803
v 0.602709 0.000000 -0.919663
v 0.602709 0.050000 -0.919663
v 0.411710 0.000000 -1.019574
v 0.411710 0.050000 -1.019574
v 0.204890 0.000000 -1.080304
v 0.204890 0.050000 -1.080304
v -0.009802 0.000000 -1.099518
v -0.009802 0.050000 -1.099518
v -0.224119 0.000000 -1.076479
v -0.224119 0.050000 -1.076479
v -0.429823 0.000000 -1.012072
v -0.429823 0.050000 -1.012072
v -0.619010 0.000000 -0.908771
v -0.619010 0.050000 -0.908771
v -0.784408 0.000000 -0.770546
v -0.784408 0.050000 -0.770546
v -1.099519 0.000000 0.009802
v -1.099519 0.050000 0.009802
v -1.080304 0.000000 -0.204892
v -1.080304 0.050000 -0.204892
v -1.019574 0.000000 -0.411712
v -1.019574 0.050000 -0.411712
v -0.919662 0.000000 -0.602710
v -0.919662 0.050000 -0.602710
v 0.000000 0.000000 -0.100000
v -0.070711 0.000000 -0.070711
v -0.100000 0.000000 0.000000
v -0.070711 0.000000 0.070711
v 0.000000 0.000000 0.100000
v 0.070711 0.000000 0.070711
v 0.100000 0.000000 0.000000
v 0.070711 0.000000 -0.070711
v 0.000000 0.050000 -0.100000
v -0.070711 0.050000 -0.070711
v -0.100000 0.050000 0.000000
v -0.070711 0.050000 0.070711
v 0.000000 0.050000 0.100000
v 0.070711 0.050000 0.070711
v 0.100000 0.050000 0.000000
v 0.070711 0.050000 -0.070711
# 144 positions

vt 0.366767 0.498858
vt 0.320980 0.512747
vt 0.373852 0.522215
vt 0.005000 0.502247
vt 0.005000 0.514450
vt 0.058713 0.514450
vt 0.058713 0.502247
vt 0.726636 0.472415
vt 0.679020 0.477105
vt 0.676627 0.452815
vt 0.090295 0.499229
vt 0.090295 0.487025
vt 0.065887 0.487025
vt 0.065887 0.499229
vt 0.179961 0.047869
vt 0.225748 0.033980
vt 0.172876 0.024512
vt 0.726636 0.960562
vt 0.774252 0.955872
vt 0.776645 0.980163
vt 0.487025 0.447791
vt 0.499229 0.447791
vt 0.499229 0.436285
vt 0.487025 0.436285
vt 0.273364 0.029290
vt 0.320980 0.033980
vt 0.275756 0.005000
vt 0.137764 0.476304
vt 0.100778 0.445950
vt 0.122280 0.495171
vt 0.633233 0.941983
vt 0.679020 0.955872
vt 0.671934 0.979229
vt 0.929576 0.580888
vt 0.899222 0.543902
vt 0.918090 0.528418
vt 0.366767 0.047869
vt 0.408964 0.070424
vt 0.378273 0.026344
vt 0.070424 0.408964
vt 0.047869 0.366766
vt 0.048898 0.420469
vt 0.096331 0.504201
vt 0.108535 0.504201
vt 0.108535 0.525703
vt 0.096331 0.525703
vt 0.966020 0.668872
vt 0.952131 0.623086
vt 0.975488 0.616000
vt 0.065887 0.468421
vt 0.065887 0.480624
vt 0.090295 0.480624
vt 0.090295 0.468421
vt 0.445950 0.100778
vt 0.476304 0.137764
vt 0.464818 0.085294
vt 0.033980 0.320980
vt 0.029290 0.273364
vt 0.009690 0.323372
vt 0.498859 0.366766
vt 0.476304 0.408964
vt 0.520384 0.378272
vt 0.501141 0.809891
vt 0.523696 0.852088
vt 0.502171 0.863594
vt 0.966020 0.764105
vt 0.970710 0.716489
vt 0.995000 0.718881
vt 0.554050 0.543902
vt 0.523696 0.580888
vt 0.504829 0.565404
vt 0.527207 0.091622
vt 0.527207 0.079418
vt 0.473494 0.079418
vt 0.473494 0.091622
vt 0.033980 0.225747
vt 0.047869 0.179960
vt 0.010623 0.218662
vt 0.462384 0.489081
vt 0.462384 0.476877
vt 0.437977 0.476877
vt 0.437977 0.489081
vt 0.929576 0.852089
vt 0.952131 0.809892
vt 0.973656 0.821397
vt 0.478568 0.098022
vt 0.478568 0.110226
vt 0.502976 0.110226
vt 0.502976 0.098022
vt 0.899222 0.889075
vt 0.948443 0.867573
vt 0.005000 0.140305
vt 0.005000 0.152509
vt 0.029408 0.152509
vt 0.029408 0.140305
vt 0.990310 0.666480
vt 0.005000 0.446433
vt 0.005000 0.458637
vt 0.058712 0.458637
vt 0.058712 0.446433
vt 0.346646 0.005000
vt 0.346646 0.017204
vt 0.400358 0.017204
vt 0.400358 0.005000
vt 0.005000 0.270971
vt 0.029407 0.115300
vt 0.029407 0.103096
vt 0.005000 0.103096
vt 0.005000 0.115300
vt 0.029407 0.133904
vt 0.029407 0.121701
vt 0.005000 0.121701
vt 0.005000 0.133904
vt 0.989376 0.771190
vt 0.434396 0.023604
vt 0.434396 0.035808
vt 0.395694 0.035808
vt 0.395694 0.023604
vt 0.070424 0.137763
vt 0.026344 0.168455
vt 0.443051 0.060813
vt 0.443051 0.073017
vt 0.496763 0.073017
vt 0.496763 0.060813
vt 0.445901 0.023604
vt 0.445901 0.035808
vt 0.139343 0.035808
vt 0.139343 0.023604
vt 0.114936 0.023604
vt 0.114936 0.035808
vt 0.429035 0.005000
vt 0.429035 0.017204
vt 0.407533 0.017204
vt 0.407533 0.005000
vt 0.100778 0.100777
vt 0.051557 0.122279
vt 0.137764 0.070423
vt 0.085294 0.081910
vt 0.447903 0.005000
vt 0.447903 0.017204
vt 0.862236 0.919429
vt 0.914706 0.907942
vt 0.058713 0.427829
vt 0.005000 0.427829
vt 0.005000 0.440033
vt 0.058713 0.440033
vt 0.024513 0.373852
vt 0.005000 0.013457
vt 0.005000 0.025660
vt 0.029408 0.025660
vt 0.029408 0.013457
vt 0.047647 0.058713
vt 0.047647 0.005000
vt 0.035444 0.005000
vt 0.035444 0.058713
vt 0.951102 0.569383
vt 0.005000 0.032061
vt 0.005000 0.044265
vt 0.029407 0.044265
vt 0.029407 0.032061
vt 0.058712 0.065887
vt 0.005000 0.065887
vt 0.005000 0.078091
vt 0.058712 0.078091
vt 0.081910 0.461434
vt 0.054048 0.005000
vt 0.054048 0.017204
vt 0.078455 0.017204
vt 0.078455 0.005000
vt 0.107760 0.023604
vt 0.054048 0.023604
vt 0.054048 0.035808
vt 0.107760 0.035808
vt 0.862236 0.513548
vt 0.877720 0.494681
vt 0.054048 0.042209
vt 0.054048 0.054413
vt 0.078456 0.054413
vt 0.078456 0.042209
vt 0.820039 0.941984
vt 0.873742 0.940954
vt 0.005000 0.084492
vt 0.005000 0.096696
vt 0.058713 0.096696
vt 0.058713 0.084492
vt 0.126258 0.048898
vt 0.138205 0.017204
vt 0.138205 0.005000
vt 0.084492 0.005000
vt 0.084492 0.017204
vt 0.108899 0.054413
vt 0.108899 0.042209
vt 0.084492 0.042209
vt 0.084492 0.054413
vt 0.827124 0.965340
vt 0.488306 0.042209
vt 0.434594 0.042209
vt 0.434594 0.054413
vt 0.488306 0.054413
vt 0.820039 0.490994
vt 0.831545 0.469468
vt 0.179961 0.498858
vt 0.168455 0.520384
vt 0.499229 0.486492
vt 0.487025 0.486492
vt 0.260389 0.263771
vt 0.260389 0.275975
vt 0.284796 0.275975
vt 0.284796 0.263771
vt 0.225747 0.512747
vt 0.218662 0.536104
vt 0.774253 0.477105
vt 0.781338 0.453748
vt 0.199092 0.017204
vt 0.199092 0.005000
vt 0.145379 0.005000
vt 0.145379 0.017204
vt 0.005000 0.183317
vt 0.017204 0.183317
vt 0.017204 0.158910
vt 0.005000 0.158910
vt 0.223355 0.009690
vt 0.096331 0.485334
vt 0.108535 0.485334
vt 0.058713 0.477242
vt 0.058713 0.465038
vt 0.005000 0.465038
vt 0.005000 0.477242
vt 0.554050 0.889075
vt 0.535182 0.904558
vt 0.591036 0.919428
vt 0.575552 0.938296
vt 0.029408 0.392676
vt 0.029408 0.380472
vt 0.005000 0.380472
vt 0.005000 0.392676
vt 0.424448 0.051557
vt 0.506912 0.034117
vt 0.506912 0.021913
vt 0.453199 0.021913
vt 0.453199 0.034117
vt 0.480624 0.456248
vt 0.468420 0.456248
vt 0.468420 0.444742
vt 0.480624 0.444742
vt 0.621727 0.963509
vt 0.480624 0.494949
vt 0.468420 0.494949
vt 0.029408 0.411280
vt 0.029408 0.399077
vt 0.005000 0.399077
vt 0.005000 0.411280
vt 0.328066 0.010623
vt 0.058712 0.495846
vt 0.058712 0.483642
vt 0.005000 0.483642
vt 0.005000 0.495846
vt 0.005000 0.354140
vt 0.017204 0.354140
vt 0.017204 0.329733
vt 0.005000 0.329733
vt 0.724244 0.984852
vt 0.511433 0.505994
vt 0.511433 0.493790
vt 0.487025 0.493790
vt 0.487025 0.505994
vt 0.498859 0.179961
vt 0.497830 0.126258
vt 0.517833 0.397385
vt 0.505629 0.397385
vt 0.505629 0.451098
vt 0.517833 0.451098
vt 0.487252 0.764105
vt 0.477785 0.816976
vt 0.452237 0.507685
vt 0.452237 0.495482
vt 0.427829 0.495482
vt 0.427829 0.507685
vt 0.512748 0.225747
vt 0.522215 0.172876
vt 0.456581 0.524598
vt 0.510295 0.524598
vt 0.510295 0.512395
vt 0.456581 0.512395
vt 0.517438 0.273364
vt 0.537038 0.223355
vt 0.482562 0.716489
vt 0.462962 0.766497
vt 0.380472 0.526290
vt 0.434184 0.526290
vt 0.434184 0.514086
vt 0.380472 0.514086
vt 0.512748 0.320980
vt 0.541727 0.275756
vt 0.495482 0.040518
vt 0.495482 0.052721
vt 0.519889 0.052721
vt 0.519889 0.040518
vt 0.487252 0.668872
vt 0.458273 0.714096
vt 0.005000 0.533055
vt 0.043701 0.533055
vt 0.043701 0.520851
vt 0.005000 0.520851
vt 0.501141 0.623086
vt 0.463896 0.661787
vt 0.536104 0.328065
vt 0.503938 0.071326
vt 0.557652 0.071326
vt 0.557652 0.059122
vt 0.503938 0.059122
vt 0.479616 0.611580
vt 0.055208 0.533055
vt 0.055208 0.520851
vt 0.503938 0.128831
vt 0.557652 0.128831
vt 0.557652 0.116627
vt 0.503938 0.116627
vt 0.114936 0.502247
vt 0.114936 0.514450
vt 0.139343 0.514450
vt 0.139343 0.502247
vt 0.445950 0.445950
vt 0.495171 0.424448
vt 0.505629 0.147435
vt 0.559341 0.147435
vt 0.559341 0.135231
vt 0.505629 0.135231
vt 0.408964 0.476304
vt 0.461434 0.464817
vt 0.591036 0.513548
vt 0.538566 0.525035
vt 0.065887 0.505629
vt 0.065887 0.517833
vt 0.090295 0.517833
vt 0.090295 0.505629
vt 0.559341 0.458273
vt 0.505629 0.458273
vt 0.505629 0.470476
vt 0.559341 0.470476
vt 0.514086 0.029408
vt 0.526290 0.029408
vt 0.526290 0.005000
vt 0.514086 0.005000
vt 0.729029 0.448125
vt 0.273364 0.517437
vt 0.270971 0.541727
vt 0.168648 0.527617
vt 0.114936 0.527617
vt 0.114936 0.539820
vt 0.168648 0.539820
vt 0.517469 0.501285
vt 0.529672 0.501285
vt 0.529672 0.476877
vt 0.517469 0.476877
vt 0.323373 0.537037
vt 0.562726 0.098022
vt 0.509012 0.098022
vt 0.509012 0.110226
vt 0.562726 0.110226
vt 0.633233 0.490994
vt 0.626148 0.467637
vt 0.062505 0.524234
vt 0.062505 0.536438
vt 0.086912 0.536438
vt 0.086912 0.524234
vt 0.439668 0.543203
vt 0.493380 0.543203
vt 0.493380 0.530999
vt 0.439668 0.530999
vt 0.579530 0.492023
vt 0.420470 0.497829
vt 0.329733 0.527617
vt 0.346991 0.527617
vt 0.346991 0.539820
vt 0.329733 0.539820
vt 0.529672 0.541838
vt 0.529672 0.524579
vt 0.517469 0.524579
vt 0.517469 0.541838
vt 0.524234 0.402805
vt 0.524234 0.385546
vt 0.536438 0.385546
vt 0.536438 0.402805
vt 0.364251 0.527617
vt 0.364251 0.539820
vt 0.529672 0.507321
vt 0.517469 0.507321
vt 0.538109 0.367306
vt 0.555370 0.367306
vt 0.555370 0.355102
vt 0.538109 0.355102
vt 0.520851 0.367306
vt 0.520851 0.355102
vt 0.524234 0.420063
vt 0.536438 0.420063
vt 0.702229 0.716489
vt 0.709377 0.733747
vt 0.726636 0.740896
vt 0.743895 0.733747
vt 0.751044 0.716489
vt 0.743895 0.699230
vt 0.726636 0.692081
vt 0.709377 0.699230
vt 0.256105 0.256105
vt 0.273364 0.248956
vt 0.290623 0.256105
vt 0.297771 0.273364
vt 0.290623 0.290622
vt 0.273364 0.297771
vt 0.256105 0.290622
vt 0.248956 0.273364
# 412 texture coordinates

vn 0.000000 -1.000000 0.000000
vn 0.976866 0.000000 0.213853
vn 0.000000 1.000000 0.000000
vn -0.471392 0.000000 0.881924
vn -0.471400 0.000000 -0.881919
vn 0.400319 0.000000 -0.916376
vn 0.956939 0.000000 -0.290290
vn -0.176256 0.000000 -0.984344
vn 0.995185 0.000000 0.098010
vn 0.471400 0.000000 -0.881920
vn -0.995184 0.000000 -0.098019
vn 0.364907 0.000000 0.931044
vn 0.539534 0.000000 0.841964
vn -0.995184 0.000000 0.098019
vn -0.956942 0.000000 0.290280
vn 0.693424 0.000000 0.720530
vn 0.820669 0.000000 0.571404
vn -0.881919 0.000000 0.471400
vn -0.773012 0.000000 0.634392
vn 0.916376 0.000000 0.400319
vn -0.634398 0.000000 0.773007
vn 0.176260 0.000000 0.984344
vn -0.956939 0.000000 -0.290290
vn -0.019167 0.000000 0.999816
vn -0.881920 0.000000 -0.471400
vn -0.213853 0.000000 0.976866
vn -0.773012 0.000000 -0.634391
vn -0.400323 0.000000 0.916374
vn -0.634391 0.000000 -0.773012
vn 0.999816 0.000000 0.019167
vn 0.984344 0.000000 -0.176260
vn -0.290280 0.000000 0.956942
vn -0.571404 0.000000 0.820669
vn -0.720530 0.000000 0.693424
vn -0.290289 0.000000 -0.956939
vn 0.931044 0.000000 -0.364908
vn -0.098019 0.000000 0.995184
vn 0.773012 0.000000 0.634392
vn 0.213849 0.000000 -0.976867
vn 0.634398 0.000000 0.773007
vn 0.571404 0.000000 -0.820669
vn 0.471400 0.000000 0.881920
vn 0.720528 0.000000 -0.693426
vn 0.290290 0.000000 0.956939
vn 0.841964 0.000000 -0.539533
vn 0.098020 0.000000 0.995184
vn 0.881922 0.000000 0.471396
vn 0.019162 0.000000 -0.999816
vn 0.956942 0.000000 0.290280
vn -0.364911 0.000000 -0.931042
vn -0.539533 0.000000 -0.841964
vn 0.995184 0.000000 -0.098020
vn -0.693424 0.000000 -0.720530
vn -0.820669 0.000000 -0.571404
vn 0.881920 0.000000 -0.471400
vn -0.916376 0.000000 -0.400319
vn 0.773007 0.000000 -0.634398
vn -0.976866 0.000000 -0.213853
vn 0.634391 0.000000 -0.773012
vn -0.841962 0.000000 0.539536
vn -0.098019 0.000000 -0.995184
vn -0.931044 0.000000 0.364907
vn 0.098019 0.000000 -0.995184
vn -0.984344 0.000000 0.176260
vn 0.290290 0.000000 -0.956939
vn -0.999816 0.000000 -0.019167
vn -0.382678 0.000000 0.923882
vn -0.923882 0.000000 -0.382678
vn 0.923882 0.000000 -0.382678
vn 0.382678 0.000000 0.923882
vn -0.923882 0.000000 0.382678
vn -0.382678 0.000000 -0.923882
vn 0.382678 0.000000 -0.923882
vn 0.923882 0.000000 0.382678
# 74 normals

usemtl None
f 7/1/1 8/2/1 125/3/1
f 22/4/2 54/5/2 76/6/2 75/7/2
f 41/8/3 40/9/3 124/10/3
f 54/11/4 22/12/4 85/13/4 86/14/4
f 23/15/1 24/16/1 87/17/1
f 57/18/3 56/19/3 94/20/3
f 43/21/5 11/22/5 89/23/5 90/24/5
f 25/25/1 26/26/1 103/27/1
f 12/28/1 13/29/1 83/30/1
f 59/31/3 58/32/3 102/33/3
f 46/34/3 45/35/3 82/36/3
f 27/37/1 28/38/1 99/39/1
f 14/40/1 15/41/1 79/42/1
f 29/43/6 61/44/6 98/45/6 97/46/6
f 48/47/3 47/48/3 78/49/3
f 33/50/7 2/51/7 113/52/7 114/53/7
f 29/54/1 30/55/1 95/56/1
f 16/57/1 17/58/1 65/59/1
f 3/60/1 4/61/1 115/62/1
f 63/63/3 62/64/3 106/65/3
f 50/66/3 49/67/3 68/68/3
f 37/69/3 36/70/3 118/71/3
f 32/72/8 64/73/8 108/74/8 107/75/8
f 18/76/1 19/77/1 69/78/1
f 64/79/9 32/80/9 109/81/9 110/82/9
f 52/83/3 51/84/3 72/85/3
f 38/86/10 6/87/10 127/88/10 128/89/10
f 53/90/3 52/83/3 74/91/3
f 48/92/11 16/93/11 65/94/11 66/95/11
f 49/67/3 48/47/3 66/96/3
f 17/97/12 49/98/12 66/99/12 65/100/12
f 18/101/13 50/102/13 68/103/13 67/104/13
f 17/58/1 18/76/1 67/105/1
f 49/106/14 17/107/14 67/108/14 68/109/14
f 50/110/15 18/111/15 69/112/15 70/113/15
f 51/84/3 50/66/3 70/114/3
f 19/115/16 51/116/16 70/117/16 69/118/16
f 19/77/1 20/119/1 71/120/1
f 20/121/17 52/122/17 72/123/17 71/124/17
f 51/116/18 19/115/18 71/125/18 72/126/18
f 52/127/19 20/128/19 73/129/19 74/130/19
f 21/131/20 53/132/20 74/133/20 73/134/20
f 20/119/1 21/135/1 73/136/1
f 21/135/1 22/137/1 75/138/1
f 53/132/21 21/131/21 75/139/21 76/140/21
f 54/141/3 53/90/3 76/142/3
f 77/143/22 16/144/22 48/145/22 78/146/22
f 15/41/1 16/57/1 77/147/1
f 47/148/23 15/149/23 77/150/23 78/151/23
f 79/152/24 15/153/24 47/154/24 80/155/24
f 47/48/3 46/34/3 80/156/3
f 46/157/25 14/158/25 79/159/25 80/160/25
f 81/161/26 14/162/26 46/163/26 82/164/26
f 13/29/1 14/40/1 81/165/1
f 45/166/27 13/167/27 81/168/27 82/169/27
f 83/170/28 13/171/28 45/172/28 84/173/28
f 45/35/3 44/174/3 84/175/3
f 44/176/29 12/177/29 83/178/29 84/179/29
f 55/180/3 54/141/3 86/181/3
f 23/182/30 55/183/30 86/184/30 85/185/30
f 22/137/1 23/15/1 85/186/1
f 24/187/31 56/188/31 88/189/31 87/190/31
f 55/191/32 23/192/32 87/193/32 88/194/32
f 56/19/3 55/180/3 88/195/3
f 89/196/33 12/197/33 44/198/33 90/199/33
f 44/174/3 43/200/3 90/201/3
f 11/202/1 12/28/1 89/203/1
f 91/204/34 11/22/34 43/21/34 92/205/34
f 42/206/35 10/207/35 91/208/35 92/209/35
f 10/210/1 11/202/1 91/211/1
f 43/200/3 42/212/3 92/213/3
f 25/214/36 57/215/36 94/216/36 93/217/36
f 56/218/37 24/219/37 93/220/37 94/221/37
f 24/16/1 25/25/1 93/222/1
f 61/44/38 29/43/38 95/223/38 96/224/38
f 30/225/39 62/226/39 96/227/39 95/228/39
f 62/64/3 61/229/3 96/230/3
f 61/229/3 60/231/3 98/232/3
f 60/233/40 28/234/40 97/235/40 98/236/40
f 28/38/1 29/54/1 97/237/1
f 28/238/41 60/239/41 100/240/41 99/241/41
f 59/242/42 27/243/42 99/244/42 100/245/42
f 60/231/3 59/31/3 100/246/3
f 27/243/43 59/242/43 102/247/43 101/248/43
f 58/249/44 26/250/44 101/251/44 102/252/44
f 26/26/1 27/37/1 101/253/1
f 26/254/45 58/255/45 104/256/45 103/257/45
f 57/258/46 25/259/46 103/260/46 104/261/46
f 58/32/3 57/18/3 104/262/3
f 62/263/47 30/264/47 105/265/47 106/266/47
f 30/55/1 31/267/1 105/268/1
f 31/269/48 63/270/48 106/271/48 105/272/48
f 64/273/3 63/63/3 108/274/3
f 63/275/49 31/276/49 107/277/49 108/278/49
f 31/267/1 32/279/1 107/280/1
f 109/281/50 1/282/50 34/283/50 110/284/50
f 32/279/1 1/285/1 109/286/1
f 34/287/3 64/273/3 110/288/3
f 111/289/51 2/290/51 33/291/51 112/292/51
f 1/285/1 2/293/1 111/294/1
f 34/295/52 1/296/52 111/297/52 112/298/52
f 33/299/3 34/287/3 112/300/3
f 113/301/53 3/302/53 35/303/53 114/304/53
f 35/305/3 33/299/3 114/306/3
f 2/293/1 3/60/1 113/307/1
f 115/308/54 4/309/54 36/310/54 116/311/54
f 36/70/3 35/305/3 116/312/3
f 35/303/55 3/302/55 115/313/55 116/314/55
f 117/315/56 5/316/56 37/317/56 118/318/56
f 36/319/57 4/320/57 117/321/57 118/322/57
f 4/61/1 5/323/1 117/324/1
f 119/325/58 6/326/58 38/327/58 120/328/58
f 5/323/1 6/329/1 119/330/1
f 38/331/3 37/69/3 120/332/3
f 37/333/59 5/334/59 119/335/59 120/336/59
f 121/337/60 10/338/60 42/339/60 122/340/60
f 41/341/61 9/342/61 121/343/61 122/344/61
f 42/212/3 41/8/3 122/345/3
f 9/346/1 10/210/1 121/347/1
f 123/348/62 9/349/62 41/350/62 124/351/62
f 40/352/63 8/353/63 123/354/63 124/355/63
f 8/2/1 9/346/1 123/356/1
f 125/357/64 8/358/64 40/359/64 126/360/64
f 40/9/3 39/361/3 126/362/3
f 39/363/65 7/364/65 125/365/65 126/366/65
f 127/367/66 7/368/66 39/369/66 128/370/66
f 39/361/3 38/331/3 128/371/3
f 6/329/1 7/1/1 127/372/1
f 132/373/67 133/374/67 141/375/67 140/376/67
f 130/377/68 131/378/68 139/379/68 138/380/68
f 135/381/69 136/382/69 144/383/69 143/384/69
f 133/374/70 134/385/70 142/386/70 141/375/70
f 131/378/71 132/387/71 140/388/71 139/379/71
f 129/389/72 130/390/72 138/391/72 137/392/72
f 136/393/73 129/389/73 137/392/73 144/394/73
f 134/395/74 135/381/74 143/384/74 142/396/74
f 64/273/3 34/287/3 137/397/3 144/398/3
f 56/19/3 57/18/3 143/399/3 142/400/3
f 48/47/3 49/67/3 141/401/3 140/402/3
f 40/9/3 41/8/3 139/403/3 138/404/3
f 24/16/1 134/405/1 135/406/1 25/25/1
f 32/279/1 136/407/1 129/408/1 1/285/1
f 8/2/1 130/409/1 131/410/1 9/346/1
f 16/57/1 132/411/1 133/412/1 17/58/1
f 63/63/3 64/273/3 144/398/3
f 62/64/3 63/63/3 144/398/3
f 61/229/3 62/64/3 144/398/3
f 60/231/3 61/229/3 144/398/3 143/399/3
f 59/31/3 60/231/3 143/399/3
f 58/32/3 59/31/3 143/399/3
f 57/18/3 58/32/3 143/399/3
f 55/180/3 56/19/3 142/400/3
f 54/141/3 55/180/3 142/400/3
f 53/90/3 54/141/3 142/400/3
f 52/83/3 53/90/3 142/400/3 141/401/3
f 51/84/3 52/83/3 141/401/3
f 50/66/3 51/84/3 141/401/3
f 49/67/3 50/66/3 141/401/3
f 47/48/3 48/47/3 140/402/3
f 46/34/3 47/48/3 140/402/3
f 45/35/3 46/34/3 140/402/3
f 44/174/3 45/35/3 140/402/3 139/403/3
f 43/200/3 44/174/3 139/403/3
f 42/212/3 43/200/3 139/403/3
f 41/8/3 42/212/3 139/403/3
f 36/70/3 37/69/3 138/404/3 137/397/3
f 35/305/3 36/70/3 137/397/3
f 34/287/3 33/299/3 137/397/3
f 33/299/3 35/305/3 137/397/3
f 39/361/3 40/9/3 138/404/3
f 38/331/3 39/361/3 138/404/3
f 37/69/3 38/331/3 138/404/3
f 20/119/1 133/412/1 134/405/1 21/135/1
f 28/38/1 135/406/1 136/407/1 29/54/1
f 4/61/1 129/408/1 130/409/1 5/323/1
f 12/28/1 131/410/1 132/411/1 13/29/1
f 5/323/1 130/409/1 6/329/1
f 6/329/1 130/409/1 7/1/1
f 7/1/1 130/409/1 8/2/1
f 9/346/1 131/410/1 10/210/1
f 10/210/1 131/410/1 11/202/1
f 11/202/1 131/410/1 12/28/1
f 13/29/1 132/411/1 14/40/1
f 14/40/1 132/411/1 15/41/1
f 15/41/1 132/411/1 16/57/1
f 17/58/1 133/412/1 18/76/1
f 18/76/1 133/412/1 19/77/1
f 19/77/1 133/412/1 20/119/1
f 21/135/1 134/405/1 22/137/1
f 22/137/1 134/405/1 23/15/1
f 23/15/1 134/405/1 24/16/1
f 25/25/1 135/406/1 26/26/1
f 26/26/1 135/406/1 27/37/1
f 27/37/1 135/406/1 28/38/1
f 29/54/1 136/407/1 30/55/1
f 30/55/1 136/407/1 31/267/1
f 31/267/1 136/407/1 32/279/1
f 1/285/1 129/408/1 2/293/1
f 2/293/1 129/408/1 3/60/1
f 3/60/1 129/408/1 4/61/1

# 200 faces
