# Wavefront Obj file
# 
# verts: 18 uv-s: 58
mtllib Body topUV.mtl

g Body_top_Cube.004
#pivot 0.000000 0.000000 0.000000

v 2.890000 1.000000 1.900000
v 2.890000 0.900000 1.900000
v 2.890000 1.000000 -2.719261
v 2.890000 0.900000 -2.719261
v 2.890000 1.000000 -2.880000
v 2.890000 0.900000 -2.880000
v 0.000000 1.000000 1.900000
v 0.000000 0.900000 1.900000
v 0.000000 1.000000 -2.719261
v 0.000000 0.900000 -2.719261
v -2.890000 1.000000 1.900000
v -2.890000 0.900000 1.900000
v -2.890000 1.000000 -2.719261
v -2.890000 0.900000 -2.719261
v 0.000000 1.000000 -3.850000
v 0.000000 0.900000 -3.850000
v -2.890000 1.000000 -2.880000
v -2.890000 0.900000 -2.880000
# 18 positions

vt 0.400177 0.252239
vt 0.496911 0.252239
vt 0.413928 0.005000
vt 0.400177 0.005000
vt 0.543102 0.272165
vt 0.543102 0.667342
vt 0.534547 0.667342
vt 0.534547 0.272165
vt 0.015486 0.344050
vt 0.015486 0.591289
vt 0.024041 0.591289
vt 0.024041 0.344050
vt 0.101734 0.258414
vt 0.496911 0.258414
vt 0.496911 0.505652
vt 0.101734 0.505652
vt 0.005000 0.005000
vt 0.005000 0.252239
vt 0.811070 0.258414
vt 0.550276 0.258414
vt 0.550276 0.266969
vt 0.811070 0.266969
vt 0.534547 0.258414
vt 0.543102 0.258414
vt 0.087983 0.505652
vt 0.005000 0.258414
vt 0.511644 0.750325
vt 0.503089 0.750325
vt 0.503089 0.355148
vt 0.511644 0.355148
vt 0.898265 0.005000
vt 0.898265 0.252239
vt 0.912017 0.252239
vt 0.995000 0.005000
vt 0.518818 0.653590
vt 0.527373 0.653590
vt 0.527373 0.258414
vt 0.518818 0.258414
vt 0.550276 0.521382
vt 0.558831 0.521382
vt 0.558831 0.274143
vt 0.550276 0.274143
vt 0.101734 0.759066
vt 0.101734 0.511827
vt 0.496911 0.511827
vt 0.496911 0.759066
vt 0.503089 0.005000
vt 0.503089 0.252239
vt 0.518818 0.674362
vt 0.518818 0.682917
vt 0.779612 0.682917
vt 0.779612 0.674362
vt 0.503089 0.258414
vt 0.511644 0.258414
vt 0.518818 0.667342
vt 0.527373 0.667342
vt 0.005000 0.759066
vt 0.087983 0.511827
# 58 texture coordinates

vn 0.000000 -1.000000 0.000000
vn 1.000000 0.000000 0.000000
vn 0.000000 0.000000 1.000000
vn 0.000000 1.000000 0.000000
vn 0.318195 0.000000 -0.948025
vn -1.000000 0.000000 0.000000
vn -0.318195 0.000000 -0.948025
# 7 normals

usemtl None
f 10/1/1 16/2/1 6/3/1 4/4/1
f 3/5/2 1/6/2 2/7/2 4/8/2
f 1/9/3 7/10/3 8/11/3 2/12/3
f 9/13/4 7/14/4 1/15/4 3/16/4
f 4/4/1 2/17/1 8/18/1 10/1/1
f 15/19/5 5/20/5 6/21/5 16/22/5
f 4/8/2 6/23/2 5/24/2 3/5/2
f 3/16/4 5/25/4 15/26/4 9/13/4
f 7/27/2 8/28/2 10/29/2 9/30/2
f 10/31/1 14/32/1 18/33/1 16/34/1
f 13/35/6 14/36/6 12/37/6 11/38/6
f 11/39/3 12/40/3 8/41/3 7/42/3
f 9/43/4 13/44/4 11/45/4 7/46/4
f 14/32/1 10/31/1 8/47/1 12/48/1
f 15/49/7 16/50/7 18/51/7 17/52/7
f 9/30/2 10/29/2 16/53/2 15/54/2
f 14/36/6 13/35/6 17/55/6 18/56/6
f 13/44/4 9/43/4 15/57/4 17/58/4

# 18 faces
