# Blender v2.79 (sub 0) OBJ File: 'BugBot.blend'
# www.blender.org
mtllib Body side left.mtl
o Body_side_left_Cube.002
v -3.000000 -1.000000 2.000000
v -3.000000 1.000000 2.000000
v -2.890000 -1.000000 1.900000
v -2.890000 1.000000 1.900000
v -3.000000 -1.000000 -3.000000
v -3.000000 1.000000 -3.000000
v -2.890000 -1.000000 -2.880000
v -2.890000 1.000000 -2.880000
vn 0.6727 0.0000 0.7399
vn 1.0000 0.0000 0.0000
vn 0.7372 0.0000 -0.6757
vn -1.0000 0.0000 0.0000
vn 0.0000 -1.0000 0.0000
vn 0.0000 1.0000 0.0000
usemtl None
s off
f 1//1 3//1 4//1 2//1
f 3//2 7//2 8//2 4//2
f 7//3 5//3 6//3 8//3
f 5//4 1//4 2//4 6//4
f 3//5 1//5 5//5 7//5
f 8//6 6//6 2//6 4//6
