# Blender v2.79 (sub 0) OBJ File: 'BugBot.blend'
# www.blender.org
mtllib Body rear right.mtl
o Body_rear_right_Cube.008
v 3.000000 -1.000000 -3.000000
v 3.000000 1.000000 -3.000000
v 2.890000 -1.000000 -2.880000
v 2.890000 1.000000 -2.880000
v 0.000000 -1.000000 -4.008003
v 0.000000 1.000000 -4.008003
v 0.000000 -1.000000 -3.850000
v 0.000000 1.000000 -3.850000
vn 0.7372 0.0000 0.6757
vn -0.3182 0.0000 0.9480
vn 0.3185 0.0000 -0.9479
vn 0.0000 -1.0000 0.0000
vn 0.0000 1.0000 0.0000
vn 1.0000 0.0000 0.0000
usemtl None
s off
f 1//1 2//1 4//1 3//1
f 3//2 4//2 8//2 7//2
f 5//3 6//3 2//3 1//3
f 3//4 7//4 5//4 1//4
f 8//5 4//5 2//5 6//5
f 7//6 5//6 6//6 8//6
