# Blender v2.79 (sub 0) OBJ File: 'BugBot.blend'
# www.blender.org
mtllib Saw blade left.mtl
o Saw_blade_left_Circle
v -1.398815 -0.058791 2.715719
v -1.164032 -0.058791 2.738843
v -0.938271 -0.058791 2.807327
v -0.730209 -0.058791 2.918539
v -0.547841 -0.058791 3.068204
v -0.398176 -0.058791 3.250572
v -0.286964 -0.058791 3.458634
v -0.218481 -0.058791 3.684394
v -0.195357 -0.058791 3.919177
v -0.218481 -0.058791 4.153960
v -0.286964 -0.058791 4.379721
v -0.398176 -0.058791 4.587783
v -0.547841 -0.058791 4.770151
v -0.730209 -0.058791 4.919816
v -0.938271 -0.058791 5.031028
v -1.164032 -0.058791 5.099512
v -1.398815 -0.058791 5.122635
v -1.633598 -0.058791 5.099511
v -1.859359 -0.058791 5.031028
v -2.067421 -0.058791 4.919816
v -2.249789 -0.058791 4.770150
v -2.399454 -0.058791 4.587782
v -2.510665 -0.058791 4.379720
v -2.579149 -0.058791 4.153959
v -2.602273 -0.058791 3.919176
v -2.579149 -0.058791 3.684393
v -2.510664 -0.058791 3.458632
v -2.399453 -0.058791 3.250571
v -2.249787 -0.058791 3.068203
v -2.067419 -0.058791 2.918538
v -1.859357 -0.058791 2.807326
v -1.633596 -0.058791 2.738843
v -1.164032 0.025192 2.738843
v -1.398815 0.025192 2.715719
v -0.938271 0.025192 2.807327
v -0.730209 0.025192 2.918539
v -0.547841 0.025192 3.068204
v -0.398176 0.025192 3.250572
v -0.286964 0.025192 3.458634
v -0.218481 0.025192 3.684394
v -0.195357 0.025192 3.919177
v -0.218481 0.025192 4.153960
v -0.286964 0.025192 4.379721
v -0.398176 0.025192 4.587783
v -0.547841 0.025192 4.770151
v -0.730209 0.025192 4.919816
v -0.938271 0.025192 5.031028
v -1.164032 0.025192 5.099512
v -1.398815 0.025192 5.122635
v -1.633598 0.025192 5.099511
v -1.859359 0.025192 5.031028
v -2.067421 0.025192 4.919816
v -2.249789 0.025192 4.770150
v -2.399454 0.025192 4.587782
v -2.510665 0.025192 4.379720
v -2.579149 0.025192 4.153959
v -2.602273 0.025192 3.919176
v -2.579149 0.025192 3.684393
v -2.510664 0.025192 3.458632
v -2.399453 0.025192 3.250571
v -2.249787 0.025192 3.068203
v -2.067419 0.025192 2.918538
v -1.859357 0.025192 2.807326
v -1.633596 0.025192 2.738843
v -1.152236 -0.058791 5.219278
v -1.152236 0.025192 5.219278
v -1.410611 -0.058791 5.242402
v -1.410611 0.025192 5.242402
v -1.668533 -0.058791 5.214675
v -1.668533 0.025192 5.214675
v -1.916089 -0.058791 5.137163
v -1.916089 0.025192 5.137163
v -2.143767 -0.058791 5.012845
v -2.143767 0.025192 5.012845
v -2.342817 -0.058791 4.846497
v -2.342817 0.025192 4.846497
v -0.903337 -0.058791 5.146192
v -0.903337 0.025192 5.146192
v -0.673479 -0.058791 5.025952
v -0.673479 0.025192 5.025952
v -0.471495 -0.058791 4.863179
v -0.471495 0.025192 4.863179
v -0.305147 -0.058791 4.664129
v -0.305147 0.025192 4.664129
v -2.505589 -0.058791 4.644513
v -2.505589 0.025192 4.644513
v -2.625829 -0.058791 4.414654
v -2.625829 0.025192 4.414654
v -0.180829 -0.058791 4.436451
v -0.180829 0.025192 4.436451
v -0.103317 -0.058791 4.188895
v -0.103317 0.025192 4.188895
v -2.698915 -0.058791 4.165755
v -2.698915 0.025192 4.165755
v -2.326133 -0.058791 2.975174
v -2.326133 0.025192 2.975174
v -2.492481 -0.058791 3.174224
v -2.492481 0.025192 3.174224
v -2.616800 -0.058791 3.401902
v -2.616800 0.025192 3.401902
v -2.694312 -0.058791 3.649458
v -2.694312 0.025192 3.649458
v -2.722039 -0.058791 3.907380
v -2.722039 0.025192 3.907380
v -2.124149 -0.058791 2.812402
v -2.124149 0.025192 2.812402
v -1.894291 -0.058791 2.692163
v -1.894291 0.025192 2.692163
v -1.645392 -0.058791 2.619077
v -1.645392 0.025192 2.619077
v -1.387019 -0.058791 2.595953
v -1.387019 0.025192 2.595953
v -1.129097 -0.058791 2.623680
v -1.129097 0.025192 2.623680
v -0.881541 -0.058791 2.701191
v -0.881541 0.025192 2.701191
v -0.653863 -0.058791 2.825510
v -0.653863 0.025192 2.825510
v -0.454813 -0.058791 2.991858
v -0.454813 0.025192 2.991858
v -0.075590 -0.058791 3.930973
v -0.075590 0.025192 3.930973
v -0.098715 -0.058791 3.672598
v -0.098715 0.025192 3.672598
v -0.171801 -0.058791 3.423699
v -0.171801 0.025192 3.423699
v -0.292040 -0.058791 3.193841
v -0.292040 0.025192 3.193841
v -1.398815 -0.135994 3.798831
v -1.313717 -0.135994 3.834080
v -1.278469 -0.135994 3.919177
v -1.313717 -0.135994 4.004275
v -1.398815 -0.135994 4.039523
v -1.483912 -0.135994 4.004275
v -1.519161 -0.135994 3.919177
v -1.483912 -0.135994 3.834080
v -1.398815 0.102395 3.798831
v -1.313717 0.102395 3.834080
v -1.278469 0.102395 3.919177
v -1.313717 0.102395 4.004275
v -1.398815 0.102395 4.039523
v -1.483912 0.102395 4.004275
v -1.519161 0.102395 3.919177
v -1.483912 0.102395 3.834080
vn 0.0000 -1.0000 0.0000
vn -0.9769 0.0000 0.2139
vn 0.0000 1.0000 0.0000
vn 0.4714 0.0000 0.8819
vn 0.4714 0.0000 -0.8819
vn -0.4003 0.0000 -0.9164
vn -0.9569 0.0000 -0.2903
vn 0.1763 0.0000 -0.9843
vn -0.9952 0.0000 0.0980
vn -0.4714 0.0000 -0.8819
vn 0.9952 0.0000 -0.0980
vn -0.3649 0.0000 0.9310
vn -0.5395 0.0000 0.8420
vn 0.9952 0.0000 0.0980
vn 0.9569 0.0000 0.2903
vn -0.6934 0.0000 0.7205
vn -0.8207 0.0000 0.5714
vn 0.8819 0.0000 0.4714
vn 0.7730 0.0000 0.6344
vn -0.9164 0.0000 0.4003
vn 0.6344 0.0000 0.7730
vn -0.1763 0.0000 0.9843
vn 0.9569 0.0000 -0.2903
vn 0.0192 0.0000 0.9998
vn 0.8819 0.0000 -0.4714
vn 0.2139 0.0000 0.9769
vn 0.7730 0.0000 -0.6344
vn 0.4003 0.0000 0.9164
vn 0.6344 0.0000 -0.7730
vn -0.9998 0.0000 0.0192
vn -0.9843 0.0000 -0.1763
vn 0.2903 0.0000 0.9569
vn 0.5714 0.0000 0.8207
vn 0.7205 0.0000 0.6934
vn 0.2903 0.0000 -0.9569
vn -0.9310 0.0000 -0.3649
vn 0.0980 0.0000 0.9952
vn -0.7730 0.0000 0.6344
vn -0.2139 0.0000 -0.9769
vn -0.6344 0.0000 0.7730
vn -0.5714 0.0000 -0.8207
vn -0.4714 0.0000 0.8819
vn -0.7205 0.0000 -0.6934
vn -0.2903 0.0000 0.9569
vn -0.8420 0.0000 -0.5395
vn -0.0980 0.0000 0.9952
vn -0.8819 0.0000 0.4714
vn -0.0192 0.0000 -0.9998
vn -0.9569 0.0000 0.2903
vn 0.3649 0.0000 -0.9310
vn 0.5395 0.0000 -0.8420
vn -0.9952 0.0000 -0.0980
vn 0.6934 0.0000 -0.7205
vn 0.8207 0.0000 -0.5714
vn -0.8819 0.0000 -0.4714
vn 0.9164 0.0000 -0.4003
vn -0.7730 0.0000 -0.6344
vn 0.9769 0.0000 -0.2139
vn -0.6344 0.0000 -0.7730
vn 0.8420 0.0000 0.5395
vn 0.0980 0.0000 -0.9952
vn 0.9310 0.0000 0.3649
vn -0.0980 0.0000 -0.9952
vn 0.9843 0.0000 0.1763
vn -0.2903 0.0000 -0.9569
vn 0.9998 0.0000 -0.0192
vn 0.3827 0.0000 0.9239
vn 0.9239 0.0000 -0.3827
vn -0.9239 0.0000 -0.3827
vn -0.3827 0.0000 0.9239
vn 0.9239 0.0000 0.3827
vn 0.3827 0.0000 -0.9239
vn -0.3827 0.0000 -0.9239
vn -0.9239 0.0000 0.3827
vn -0.0127 0.9975 -0.0698
vn -0.0698 0.9975 0.0127
vn 0.0127 0.9975 0.0698
vn 0.0698 0.9975 -0.0127
vn -0.0698 -0.9975 0.0127
vn -0.0127 -0.9975 -0.0698
vn 0.0698 -0.9975 -0.0127
vn 0.0127 -0.9975 0.0698
vn -0.0205 0.9975 -0.0675
vn -0.0335 0.9975 -0.0627
vn -0.0453 0.9974 -0.0552
vn -0.0584 0.9975 -0.0404
vn -0.0622 0.9975 -0.0333
vn -0.0681 0.9975 -0.0207
vn -0.0711 0.9974 -0.0070
vn -0.0675 0.9975 0.0205
vn -0.0627 0.9975 0.0335
vn -0.0552 0.9974 0.0453
vn -0.0404 0.9975 0.0584
vn -0.0333 0.9975 0.0622
vn -0.0207 0.9975 0.0681
vn -0.0070 0.9974 0.0711
vn 0.0205 0.9975 0.0675
vn 0.0335 0.9975 0.0627
vn 0.0453 0.9974 0.0552
vn 0.0584 0.9975 0.0404
vn 0.0622 0.9975 0.0333
vn 0.0681 0.9975 0.0207
vn 0.0711 0.9974 0.0070
vn 0.0404 0.9975 -0.0584
vn 0.0333 0.9975 -0.0622
vn 0.0070 0.9974 -0.0711
vn 0.0207 0.9975 -0.0681
vn 0.0675 0.9975 -0.0205
vn 0.0627 0.9975 -0.0335
vn 0.0552 0.9974 -0.0453
vn -0.0404 -0.9975 0.0584
vn -0.0584 -0.9975 -0.0404
vn 0.0404 -0.9975 -0.0584
vn 0.0584 -0.9975 0.0404
vn 0.0552 -0.9974 -0.0453
vn 0.0627 -0.9975 -0.0335
vn 0.0675 -0.9975 -0.0205
vn 0.0711 -0.9974 0.0070
vn 0.0681 -0.9975 0.0207
vn 0.0622 -0.9975 0.0333
vn 0.0453 -0.9974 0.0552
vn 0.0335 -0.9975 0.0627
vn 0.0205 -0.9975 0.0675
vn -0.0070 -0.9974 0.0711
vn -0.0207 -0.9975 0.0681
vn -0.0333 -0.9975 0.0622
vn -0.0552 -0.9974 0.0453
vn -0.0627 -0.9975 0.0335
vn -0.0675 -0.9975 0.0205
vn -0.0711 -0.9974 -0.0070
vn -0.0681 -0.9975 -0.0207
vn -0.0622 -0.9975 -0.0333
vn -0.0453 -0.9974 -0.0552
vn -0.0335 -0.9975 -0.0627
vn -0.0205 -0.9975 -0.0675
vn 0.0070 -0.9974 -0.0711
vn 0.0207 -0.9975 -0.0681
vn 0.0333 -0.9975 -0.0622
usemtl None
s off
f 7//1 125//1 8//1
f 22//2 75//2 76//2 54//2
f 41//3 124//3 40//3
f 54//4 86//4 85//4 22//4
f 23//1 87//1 24//1
f 57//3 94//3 56//3
f 43//5 90//5 89//5 11//5
f 25//1 103//1 26//1
f 12//1 83//1 13//1
f 59//3 102//3 58//3
f 46//3 82//3 45//3
f 27//1 99//1 28//1
f 14//1 79//1 15//1
f 29//6 97//6 98//6 61//6
f 48//3 78//3 47//3
f 33//7 114//7 113//7 2//7
f 29//1 95//1 30//1
f 16//1 65//1 17//1
f 3//1 115//1 4//1
f 63//3 106//3 62//3
f 50//3 68//3 49//3
f 37//3 118//3 36//3
f 32//8 107//8 108//8 64//8
f 18//1 69//1 19//1
f 64//9 110//9 109//9 32//9
f 52//3 72//3 51//3
f 38//10 128//10 127//10 6//10
f 53//3 74//3 52//3
f 48//11 66//11 65//11 16//11
f 49//3 66//3 48//3
f 17//12 65//12 66//12 49//12
f 18//13 67//13 68//13 50//13
f 17//1 67//1 18//1
f 49//14 68//14 67//14 17//14
f 50//15 70//15 69//15 18//15
f 51//3 70//3 50//3
f 19//16 69//16 70//16 51//16
f 19//1 71//1 20//1
f 20//17 71//17 72//17 52//17
f 51//18 72//18 71//18 19//18
f 52//19 74//19 73//19 20//19
f 21//20 73//20 74//20 53//20
f 20//1 73//1 21//1
f 21//1 75//1 22//1
f 53//21 76//21 75//21 21//21
f 54//3 76//3 53//3
f 77//22 78//22 48//22 16//22
f 15//1 77//1 16//1
f 47//23 78//23 77//23 15//23
f 79//24 80//24 47//24 15//24
f 47//3 80//3 46//3
f 46//25 80//25 79//25 14//25
f 81//26 82//26 46//26 14//26
f 13//1 81//1 14//1
f 45//27 82//27 81//27 13//27
f 83//28 84//28 45//28 13//28
f 45//3 84//3 44//3
f 44//29 84//29 83//29 12//29
f 55//3 86//3 54//3
f 23//30 85//30 86//30 55//30
f 22//1 85//1 23//1
f 24//31 87//31 88//31 56//31
f 55//32 88//32 87//32 23//32
f 56//3 88//3 55//3
f 89//33 90//33 44//33 12//33
f 44//3 90//3 43//3
f 11//1 89//1 12//1
f 91//34 92//34 43//34 11//34
f 42//35 92//35 91//35 10//35
f 10//1 91//1 11//1
f 43//3 92//3 42//3
f 25//36 93//36 94//36 57//36
f 56//37 94//37 93//37 24//37
f 24//1 93//1 25//1
f 61//38 96//38 95//38 29//38
f 30//39 95//39 96//39 62//39
f 62//3 96//3 61//3
f 61//3 98//3 60//3
f 60//40 98//40 97//40 28//40
f 28//1 97//1 29//1
f 28//41 99//41 100//41 60//41
f 59//42 100//42 99//42 27//42
f 60//3 100//3 59//3
f 27//43 101//43 102//43 59//43
f 58//44 102//44 101//44 26//44
f 26//1 101//1 27//1
f 26//45 103//45 104//45 58//45
f 57//46 104//46 103//46 25//46
f 58//3 104//3 57//3
f 62//47 106//47 105//47 30//47
f 30//1 105//1 31//1
f 31//48 105//48 106//48 63//48
f 64//3 108//3 63//3
f 63//49 108//49 107//49 31//49
f 31//1 107//1 32//1
f 109//50 110//50 34//50 1//50
f 32//1 109//1 1//1
f 34//3 110//3 64//3
f 111//51 112//51 33//51 2//51
f 1//1 111//1 2//1
f 34//52 112//52 111//52 1//52
f 33//3 112//3 34//3
f 113//53 114//53 35//53 3//53
f 35//3 114//3 33//3
f 2//1 113//1 3//1
f 115//54 116//54 36//54 4//54
f 36//3 116//3 35//3
f 35//55 116//55 115//55 3//55
f 117//56 118//56 37//56 5//56
f 36//57 118//57 117//57 4//57
f 4//1 117//1 5//1
f 119//58 120//58 38//58 6//58
f 5//1 119//1 6//1
f 38//3 120//3 37//3
f 37//59 120//59 119//59 5//59
f 121//60 122//60 42//60 10//60
f 41//61 122//61 121//61 9//61
f 42//3 122//3 41//3
f 9//1 121//1 10//1
f 123//62 124//62 41//62 9//62
f 40//63 124//63 123//63 8//63
f 8//1 123//1 9//1
f 125//64 126//64 40//64 8//64
f 40//3 126//3 39//3
f 39//65 126//65 125//65 7//65
f 127//66 128//66 39//66 7//66
f 39//3 128//3 38//3
f 6//1 127//1 7//1
f 132//67 140//67 141//67 133//67
f 130//68 138//68 139//68 131//68
f 135//69 143//69 144//69 136//69
f 133//70 141//70 142//70 134//70
f 131//71 139//71 140//71 132//71
f 129//72 137//72 138//72 130//72
f 136//73 144//73 137//73 129//73
f 134//74 142//74 143//74 135//74
f 64//75 144//75 137//75 34//75
f 56//76 142//76 143//76 57//76
f 48//77 140//77 141//77 49//77
f 40//78 138//78 139//78 41//78
f 24//79 25//79 135//79 134//79
f 32//80 1//80 129//80 136//80
f 8//81 9//81 131//81 130//81
f 16//82 17//82 133//82 132//82
f 63//83 144//83 64//83
f 62//84 144//84 63//84
f 61//85 144//85 62//85
f 60//86 143//86 144//86 61//86
f 59//87 143//87 60//87
f 58//88 143//88 59//88
f 57//89 143//89 58//89
f 55//90 142//90 56//90
f 54//91 142//91 55//91
f 53//92 142//92 54//92
f 52//93 141//93 142//93 53//93
f 51//94 141//94 52//94
f 50//95 141//95 51//95
f 49//96 141//96 50//96
f 47//97 140//97 48//97
f 46//98 140//98 47//98
f 45//99 140//99 46//99
f 44//100 139//100 140//100 45//100
f 43//101 139//101 44//101
f 42//102 139//102 43//102
f 41//103 139//103 42//103
f 36//104 137//104 138//104 37//104
f 35//105 137//105 36//105
f 34//106 137//106 33//106
f 33//107 137//107 35//107
f 39//108 138//108 40//108
f 38//109 138//109 39//109
f 37//110 138//110 38//110
f 20//111 21//111 134//111 133//111
f 28//112 29//112 136//112 135//112
f 4//113 5//113 130//113 129//113
f 12//114 13//114 132//114 131//114
f 5//115 6//115 130//115
f 6//116 7//116 130//116
f 7//117 8//117 130//117
f 9//118 10//118 131//118
f 10//119 11//119 131//119
f 11//120 12//120 131//120
f 13//121 14//121 132//121
f 14//122 15//122 132//122
f 15//123 16//123 132//123
f 17//124 18//124 133//124
f 18//125 19//125 133//125
f 19//126 20//126 133//126
f 21//127 22//127 134//127
f 22//128 23//128 134//128
f 23//129 24//129 134//129
f 25//130 26//130 135//130
f 26//131 27//131 135//131
f 27//132 28//132 135//132
f 29//133 30//133 136//133
f 30//134 31//134 136//134
f 31//135 32//135 136//135
f 1//136 2//136 129//136
f 2//137 3//137 129//137
f 3//138 4//138 129//138
